<svg width="404" height="473" viewBox="0 0 404 473" fill="none" xmlns="http://www.w3.org/2000/svg">
<path d="M0 0H404V425.386V473H361.862H0V0Z" fill="#F3F7FA"/>
<path d="M41.4724 67.0001C45.1736 67.0001 48.7851 64.6447 48.7851 59.1489C48.7851 53.6531 45.1736 51.2978 41.4724 51.2978H36.5598V67.0001H41.4724ZM39.4759 64.3082V53.9896H40.5527C43.065 53.9896 45.8241 54.9766 45.8241 59.1489C45.8241 63.3212 43.065 64.3082 40.5527 64.3082H39.4759ZM61.6493 61.1005C61.6493 58.633 60.1463 55.515 56.3778 55.515C52.4971 55.515 50.9493 58.6779 50.9493 61.3472C50.9493 64.0166 52.4971 67.1795 56.3778 67.1795C59.1145 67.1795 60.6398 65.8785 61.5147 63.882L59.2715 63.0521C58.5985 64.2185 57.8134 64.8017 56.5348 64.8017C54.8076 64.8017 53.9327 63.5007 53.8654 62.2445H61.6493V61.1005ZM56.3778 57.8927C57.8583 57.8927 58.5537 58.9246 58.8004 60.0462H53.9327C54.1346 58.9695 54.9646 57.8927 56.3778 57.8927ZM66.3242 59.1938C66.6831 58.1395 67.4907 57.8927 68.2758 57.8927C69.3076 57.8927 70.2498 58.2965 70.2498 59.5527V60.0462H68.3655C65.5167 60.0462 63.5427 61.5043 63.5427 63.7474C63.5427 65.9906 65.0456 67.1795 66.9747 67.1795C68.5898 67.1795 69.6665 66.529 70.4517 65.5644L70.7433 67.0001H73.0313V60.2481C73.0313 56.6366 70.9676 55.515 68.2758 55.515C65.9653 55.515 64.3278 56.7936 63.9689 58.6554L66.3242 59.1938ZM66.4588 63.7026C66.4588 62.6932 67.199 62.2445 68.3879 62.2445H70.2498V62.4688C70.2498 63.9269 68.9039 64.8017 67.6252 64.8017C66.8401 64.8017 66.4588 64.2409 66.4588 63.7026ZM75.7873 51.1183V67.0001H78.5688V51.1183H75.7873ZM98.3619 55.7617C98.3619 53.1596 96.7244 51.2978 93.5839 51.2978H87.8638V67.0001H90.78V60.2257H92.3053L96.5225 67.0001H99.7751L95.4233 59.9789C97.3301 59.3957 98.3619 57.8254 98.3619 55.7617ZM93.6064 57.5338H90.78V53.9896H93.6064C94.6607 53.9896 95.4458 54.4831 95.4458 55.7617C95.4458 57.0403 94.6607 57.5338 93.6064 57.5338ZM101.114 61.3472C101.114 64.6223 103.223 67.1795 106.857 67.1795C110.491 67.1795 112.599 64.6223 112.599 61.3472C112.599 58.0722 110.491 55.515 106.857 55.515C103.223 55.515 101.114 58.0722 101.114 61.3472ZM104.03 61.3472C104.03 59.4854 105.062 57.8927 106.857 57.8927C108.651 57.8927 109.683 59.4854 109.683 61.3472C109.683 63.2091 108.651 64.8017 106.857 64.8017C105.062 64.8017 104.03 63.2091 104.03 61.3472ZM114.674 61.3472C114.674 64.6223 116.783 67.1795 120.417 67.1795C124.051 67.1795 126.159 64.6223 126.159 61.3472C126.159 58.0722 124.051 55.515 120.417 55.515C116.783 55.515 114.674 58.0722 114.674 61.3472ZM117.59 61.3472C117.59 59.4854 118.622 57.8927 120.417 57.8927C122.211 57.8927 123.243 59.4854 123.243 61.3472C123.243 63.2091 122.211 64.8017 120.417 64.8017C118.622 64.8017 117.59 63.2091 117.59 61.3472ZM138.222 67.0001V62.6034C138.222 59.4181 139.321 57.8927 140.667 57.8927C141.497 57.8927 142.058 58.3189 142.058 59.463V67.0001H144.839V58.9919C144.839 56.816 143.583 55.515 141.474 55.515C140.084 55.515 138.828 56.3898 138.02 57.8479C137.526 56.2104 136.248 55.515 134.857 55.515C133.399 55.515 132.434 56.2552 131.604 57.5114V55.6944H128.823V67.0001H131.604V62.8502C131.604 59.4854 132.681 57.8927 134.05 57.8927C134.88 57.8927 135.44 58.3189 135.44 59.463V67.0001H138.222Z" fill="black"/>
<path d="M40.2119 162.551V153.191H41.1674V161.634H45.6134V162.551H40.2119ZM49.653 162.746C48.9554 162.746 48.3595 162.588 47.8655 162.271C47.3715 161.955 46.9924 161.517 46.728 160.958C46.4637 160.399 46.3315 159.758 46.3315 159.034C46.3315 158.298 46.4659 157.652 46.7345 157.097C47.0032 156.543 47.3845 156.112 47.8785 155.804C48.3769 155.492 48.9684 155.336 49.653 155.336C50.355 155.336 50.953 155.494 51.447 155.81C51.9454 156.122 52.3245 156.558 52.5845 157.117C52.8489 157.672 52.981 158.311 52.981 159.034C52.981 159.771 52.8489 160.419 52.5845 160.978C52.3202 161.533 51.9389 161.966 51.4405 162.278C50.9422 162.59 50.3464 162.746 49.653 162.746ZM49.653 161.829C50.433 161.829 51.0137 161.572 51.395 161.056C51.7764 160.536 51.967 159.862 51.967 159.034C51.967 158.185 51.7742 157.509 51.3885 157.006C51.0072 156.504 50.4287 156.252 49.653 156.252C49.1287 156.252 48.6954 156.372 48.353 156.61C48.015 156.844 47.7615 157.171 47.5925 157.591C47.4279 158.007 47.3455 158.488 47.3455 159.034C47.3455 159.879 47.5405 160.558 47.9305 161.069C48.3205 161.576 48.8947 161.829 49.653 161.829ZM57.3269 162.746C56.6205 162.746 56.0225 162.588 55.5329 162.271C55.0432 161.955 54.6705 161.52 54.4149 160.965C54.1635 160.406 54.0335 159.765 54.0249 159.041C54.0335 158.304 54.1679 157.659 54.4279 157.104C54.6879 156.545 55.0627 156.112 55.5524 155.804C56.042 155.492 56.6357 155.336 57.3334 155.336C58.044 155.336 58.6615 155.509 59.1859 155.856C59.7145 156.203 60.0764 156.677 60.2714 157.279L59.3354 157.578C59.1707 157.158 58.9085 156.833 58.5489 156.603C58.1935 156.369 57.7862 156.252 57.3269 156.252C56.8112 156.252 56.3844 156.372 56.0464 156.61C55.7084 156.844 55.457 157.171 55.2924 157.591C55.1277 158.012 55.0432 158.495 55.0389 159.041C55.0475 159.882 55.2425 160.558 55.6239 161.069C56.0052 161.576 56.5729 161.829 57.3269 161.829C57.8035 161.829 58.2087 161.721 58.5424 161.504C58.8804 161.283 59.136 160.963 59.3094 160.542L60.2714 160.828C60.0114 161.452 59.63 161.929 59.1274 162.258C58.6247 162.583 58.0245 162.746 57.3269 162.746ZM63.5835 162.746C63.0549 162.746 62.6107 162.651 62.251 162.46C61.8957 162.269 61.6292 162.016 61.4515 161.699C61.2739 161.383 61.185 161.039 61.185 160.666C61.185 160.285 61.2609 159.96 61.4125 159.691C61.5685 159.418 61.7787 159.195 62.043 159.021C62.3117 158.848 62.6215 158.716 62.9725 158.625C63.3279 158.538 63.72 158.462 64.149 158.397C64.5824 158.328 65.0049 158.27 65.4165 158.222C65.8325 158.17 66.1965 158.12 66.5085 158.072L66.1705 158.28C66.1835 157.587 66.0492 157.074 65.7675 156.74C65.4859 156.406 64.9962 156.239 64.2985 156.239C63.8175 156.239 63.4102 156.348 63.0765 156.564C62.7472 156.781 62.5154 157.123 62.381 157.591L61.4515 157.318C61.6119 156.69 61.9347 156.203 62.42 155.856C62.9054 155.509 63.5359 155.336 64.3115 155.336C64.9529 155.336 65.4967 155.457 65.943 155.7C66.3937 155.938 66.7122 156.285 66.8985 156.74C66.9852 156.944 67.0415 157.171 67.0675 157.422C67.0935 157.674 67.1065 157.929 67.1065 158.189V162.551H66.255V160.789L66.502 160.893C66.2637 161.496 65.8932 161.955 65.3905 162.271C64.8879 162.588 64.2855 162.746 63.5835 162.746ZM63.694 161.92C64.1404 161.92 64.5304 161.84 64.864 161.68C65.1977 161.52 65.4664 161.301 65.67 161.023C65.8737 160.742 66.0059 160.425 66.0665 160.074C66.1185 159.849 66.1467 159.602 66.151 159.333C66.1554 159.06 66.1575 158.857 66.1575 158.722L66.5215 158.911C66.1965 158.954 65.8434 158.998 65.462 159.041C65.085 159.084 64.7124 159.134 64.344 159.19C63.98 159.247 63.6507 159.314 63.356 159.392C63.1567 159.448 62.9639 159.528 62.7775 159.632C62.5912 159.732 62.4374 159.866 62.316 160.035C62.199 160.204 62.1405 160.415 62.1405 160.666C62.1405 160.87 62.1904 161.067 62.29 161.257C62.394 161.448 62.5587 161.606 62.784 161.732C63.0137 161.858 63.317 161.92 63.694 161.92ZM72.6207 162.551C72.2263 162.633 71.8363 162.666 71.4507 162.648C71.0693 162.631 70.727 162.549 70.4237 162.401C70.1247 162.254 69.8972 162.024 69.7412 161.712C69.6155 161.452 69.5462 161.19 69.5332 160.926C69.5245 160.657 69.5202 160.352 69.5202 160.009V153.581H70.4692V159.97C70.4692 160.265 70.4713 160.512 70.4757 160.711C70.4843 160.906 70.5298 161.08 70.6122 161.231C70.7682 161.522 71.0152 161.695 71.3532 161.751C71.6955 161.808 72.118 161.795 72.6207 161.712V162.551ZM68.0187 156.35V155.531H72.6207V156.35H68.0187ZM74.1338 154.198V153.126H75.0893V154.198H74.1338ZM74.1338 162.551V155.531H75.0893V162.551H74.1338ZM79.9694 162.746C79.2718 162.746 78.6759 162.588 78.1819 162.271C77.6879 161.955 77.3088 161.517 77.0444 160.958C76.7801 160.399 76.6479 159.758 76.6479 159.034C76.6479 158.298 76.7823 157.652 77.0509 157.097C77.3196 156.543 77.7009 156.112 78.1949 155.804C78.6933 155.492 79.2848 155.336 79.9694 155.336C80.6714 155.336 81.2694 155.494 81.7634 155.81C82.2618 156.122 82.6409 156.558 82.9009 157.117C83.1653 157.672 83.2974 158.311 83.2974 159.034C83.2974 159.771 83.1653 160.419 82.9009 160.978C82.6366 161.533 82.2553 161.966 81.7569 162.278C81.2586 162.59 80.6628 162.746 79.9694 162.746ZM79.9694 161.829C80.7494 161.829 81.3301 161.572 81.7114 161.056C82.0928 160.536 82.2834 159.862 82.2834 159.034C82.2834 158.185 82.0906 157.509 81.7049 157.006C81.3236 156.504 80.7451 156.252 79.9694 156.252C79.4451 156.252 79.0118 156.372 78.6694 156.61C78.3314 156.844 78.0779 157.171 77.9089 157.591C77.7443 158.007 77.6619 158.488 77.6619 159.034C77.6619 159.879 77.8569 160.558 78.2469 161.069C78.6369 161.576 79.2111 161.829 79.9694 161.829ZM89.8013 162.551V158.969C89.8013 158.579 89.7645 158.222 89.6908 157.897C89.6171 157.568 89.498 157.282 89.3333 157.039C89.173 156.792 88.9628 156.601 88.7028 156.467C88.4471 156.333 88.1351 156.265 87.7668 156.265C87.4288 156.265 87.1298 156.324 86.8698 156.441C86.6141 156.558 86.3975 156.727 86.2198 156.948C86.0465 157.165 85.9143 157.429 85.8233 157.741C85.7323 158.053 85.6868 158.408 85.6868 158.807L85.0108 158.657C85.0108 157.938 85.1365 157.334 85.3878 156.844C85.6391 156.354 85.9858 155.984 86.4278 155.732C86.8698 155.481 87.3768 155.355 87.9488 155.355C88.3691 155.355 88.7353 155.42 89.0473 155.55C89.3636 155.68 89.6301 155.856 89.8468 156.077C90.0678 156.298 90.2455 156.551 90.3798 156.837C90.5141 157.119 90.6116 157.42 90.6723 157.741C90.733 158.057 90.7633 158.374 90.7633 158.69V162.551H89.8013ZM84.7248 162.551V155.531H85.5893V157.26H85.6868V162.551H84.7248ZM97.0611 162.746C96.5324 162.746 96.0882 162.651 95.7286 162.46C95.3732 162.269 95.1067 162.016 94.9291 161.699C94.7514 161.383 94.6626 161.039 94.6626 160.666C94.6626 160.285 94.7384 159.96 94.8901 159.691C95.0461 159.418 95.2562 159.195 95.5206 159.021C95.7892 158.848 96.0991 158.716 96.4501 158.625C96.8054 158.538 97.1976 158.462 97.6266 158.397C98.0599 158.328 98.4824 158.27 98.8941 158.222C99.3101 158.17 99.6741 158.12 99.9861 158.072L99.6481 158.28C99.6611 157.587 99.5267 157.074 99.2451 156.74C98.9634 156.406 98.4737 156.239 97.7761 156.239C97.2951 156.239 96.8877 156.348 96.5541 156.564C96.2247 156.781 95.9929 157.123 95.8586 157.591L94.9291 157.318C95.0894 156.69 95.4122 156.203 95.8976 155.856C96.3829 155.509 97.0134 155.336 97.7891 155.336C98.4304 155.336 98.9742 155.457 99.4206 155.7C99.8712 155.938 100.19 156.285 100.376 156.74C100.463 156.944 100.519 157.171 100.545 157.422C100.571 157.674 100.584 157.929 100.584 158.189V162.551H99.7326V160.789L99.9796 160.893C99.7412 161.496 99.3707 161.955 98.8681 162.271C98.3654 162.588 97.7631 162.746 97.0611 162.746ZM97.1716 161.92C97.6179 161.92 98.0079 161.84 98.3416 161.68C98.6752 161.52 98.9439 161.301 99.1476 161.023C99.3512 160.742 99.4834 160.425 99.5441 160.074C99.5961 159.849 99.6242 159.602 99.6286 159.333C99.6329 159.06 99.6351 158.857 99.6351 158.722L99.9991 158.911C99.6741 158.954 99.3209 158.998 98.9396 159.041C98.5626 159.084 98.1899 159.134 97.8216 159.19C97.4576 159.247 97.1282 159.314 96.8336 159.392C96.6342 159.448 96.4414 159.528 96.2551 159.632C96.0687 159.732 95.9149 159.866 95.7936 160.035C95.6766 160.204 95.6181 160.415 95.6181 160.666C95.6181 160.87 95.6679 161.067 95.7676 161.257C95.8716 161.448 96.0362 161.606 96.2616 161.732C96.4912 161.858 96.7946 161.92 97.1716 161.92ZM107.346 162.551V158.969C107.346 158.579 107.309 158.222 107.236 157.897C107.162 157.568 107.043 157.282 106.878 157.039C106.718 156.792 106.508 156.601 106.248 156.467C105.992 156.333 105.68 156.265 105.312 156.265C104.974 156.265 104.675 156.324 104.415 156.441C104.159 156.558 103.942 156.727 103.765 156.948C103.591 157.165 103.459 157.429 103.368 157.741C103.277 158.053 103.232 158.408 103.232 158.807L102.556 158.657C102.556 157.938 102.681 157.334 102.933 156.844C103.184 156.354 103.531 155.984 103.973 155.732C104.415 155.481 104.922 155.355 105.494 155.355C105.914 155.355 106.28 155.42 106.592 155.55C106.909 155.68 107.175 155.856 107.392 156.077C107.613 156.298 107.79 156.551 107.925 156.837C108.059 157.119 108.157 157.42 108.217 157.741C108.278 158.057 108.308 158.374 108.308 158.69V162.551H107.346ZM102.27 162.551V155.531H103.134V157.26H103.232V162.551H102.27ZM112.68 162.746C112.026 162.746 111.467 162.583 111.003 162.258C110.54 161.929 110.184 161.485 109.937 160.926C109.69 160.367 109.567 159.736 109.567 159.034C109.567 158.337 109.688 157.708 109.931 157.149C110.178 156.59 110.531 156.148 110.99 155.823C111.45 155.498 112 155.336 112.641 155.336C113.3 155.336 113.855 155.496 114.305 155.817C114.756 156.138 115.096 156.577 115.326 157.136C115.56 157.691 115.677 158.324 115.677 159.034C115.677 159.732 115.562 160.363 115.332 160.926C115.103 161.485 114.765 161.929 114.318 162.258C113.872 162.583 113.326 162.746 112.68 162.746ZM112.778 161.855C113.276 161.855 113.688 161.734 114.013 161.491C114.338 161.249 114.581 160.915 114.741 160.49C114.901 160.061 114.981 159.576 114.981 159.034C114.981 158.484 114.901 157.999 114.741 157.578C114.581 157.154 114.338 156.822 114.013 156.584C113.692 156.346 113.287 156.226 112.797 156.226C112.295 156.226 111.879 156.35 111.549 156.597C111.22 156.844 110.975 157.18 110.815 157.604C110.659 158.029 110.581 158.506 110.581 159.034C110.581 159.567 110.661 160.048 110.821 160.477C110.986 160.902 111.231 161.238 111.556 161.485C111.881 161.732 112.288 161.855 112.778 161.855ZM114.981 162.551V157.266H114.877V153.191H115.839V162.551H114.981ZM119.615 162.551L122.839 153.191H124.107L127.331 162.551H126.336L123.275 153.724H123.652L120.61 162.551H119.615ZM121.052 160.282V159.385H125.888V160.282H121.052ZM131.228 162.746C130.574 162.746 130.015 162.583 129.551 162.258C129.088 161.929 128.732 161.485 128.485 160.926C128.238 160.367 128.115 159.736 128.115 159.034C128.115 158.337 128.236 157.708 128.479 157.149C128.726 156.59 129.079 156.148 129.538 155.823C129.998 155.498 130.548 155.336 131.189 155.336C131.848 155.336 132.403 155.496 132.853 155.817C133.304 156.138 133.644 156.577 133.874 157.136C134.108 157.691 134.225 158.324 134.225 159.034C134.225 159.732 134.11 160.363 133.88 160.926C133.651 161.485 133.313 161.929 132.866 162.258C132.42 162.583 131.874 162.746 131.228 162.746ZM131.326 161.855C131.824 161.855 132.236 161.734 132.561 161.491C132.886 161.249 133.128 160.915 133.289 160.49C133.449 160.061 133.529 159.576 133.529 159.034C133.529 158.484 133.449 157.999 133.289 157.578C133.128 157.154 132.886 156.822 132.561 156.584C132.24 156.346 131.835 156.226 131.345 156.226C130.843 156.226 130.427 156.35 130.097 156.597C129.768 156.844 129.523 157.18 129.363 157.604C129.207 158.029 129.129 158.506 129.129 159.034C129.129 159.567 129.209 160.048 129.369 160.477C129.534 160.902 129.779 161.238 130.104 161.485C130.429 161.732 130.836 161.855 131.326 161.855ZM133.529 162.551V157.266H133.425V153.191H134.387V162.551H133.529ZM138.934 162.746C138.28 162.746 137.721 162.583 137.257 162.258C136.794 161.929 136.438 161.485 136.191 160.926C135.944 160.367 135.821 159.736 135.821 159.034C135.821 158.337 135.942 157.708 136.185 157.149C136.432 156.59 136.785 156.148 137.244 155.823C137.704 155.498 138.254 155.336 138.895 155.336C139.554 155.336 140.109 155.496 140.559 155.817C141.01 156.138 141.35 156.577 141.58 157.136C141.814 157.691 141.931 158.324 141.931 159.034C141.931 159.732 141.816 160.363 141.586 160.926C141.357 161.485 141.019 161.929 140.572 162.258C140.126 162.583 139.58 162.746 138.934 162.746ZM139.032 161.855C139.53 161.855 139.942 161.734 140.267 161.491C140.592 161.249 140.834 160.915 140.995 160.49C141.155 160.061 141.235 159.576 141.235 159.034C141.235 158.484 141.155 157.999 140.995 157.578C140.834 157.154 140.592 156.822 140.267 156.584C139.946 156.346 139.541 156.226 139.051 156.226C138.549 156.226 138.133 156.35 137.803 156.597C137.474 156.844 137.229 157.18 137.069 157.604C136.913 158.029 136.835 158.506 136.835 159.034C136.835 159.567 136.915 160.048 137.075 160.477C137.24 160.902 137.485 161.238 137.81 161.485C138.135 161.732 138.542 161.855 139.032 161.855ZM141.235 162.551V157.266H141.131V153.191H142.093V162.551H141.235ZM143.917 162.551V155.531H144.775V157.221L144.606 157C144.684 156.792 144.786 156.601 144.911 156.428C145.037 156.25 145.174 156.105 145.321 155.992C145.503 155.832 145.715 155.711 145.958 155.628C146.201 155.542 146.445 155.492 146.692 155.479C146.939 155.462 147.165 155.479 147.368 155.531V156.428C147.113 156.363 146.833 156.348 146.53 156.382C146.227 156.417 145.947 156.538 145.691 156.746C145.457 156.928 145.282 157.147 145.165 157.403C145.048 157.654 144.97 157.923 144.931 158.209C144.892 158.491 144.872 158.77 144.872 159.047V162.551H143.917ZM151.445 162.746C150.76 162.746 150.167 162.594 149.664 162.291C149.166 161.988 148.778 161.561 148.5 161.01C148.223 160.46 148.084 159.814 148.084 159.073C148.084 158.306 148.221 157.643 148.494 157.084C148.767 156.525 149.15 156.094 149.644 155.791C150.143 155.488 150.73 155.336 151.406 155.336C152.099 155.336 152.691 155.496 153.18 155.817C153.67 156.133 154.041 156.588 154.292 157.182C154.543 157.776 154.658 158.484 154.636 159.307H153.661V158.969C153.644 158.059 153.447 157.373 153.07 156.909C152.697 156.445 152.151 156.213 151.432 156.213C150.678 156.213 150.099 156.458 149.696 156.948C149.298 157.438 149.098 158.135 149.098 159.041C149.098 159.925 149.298 160.612 149.696 161.101C150.099 161.587 150.669 161.829 151.406 161.829C151.909 161.829 152.346 161.715 152.719 161.485C153.096 161.251 153.393 160.915 153.609 160.477L154.5 160.822C154.223 161.433 153.813 161.907 153.271 162.245C152.734 162.579 152.125 162.746 151.445 162.746ZM148.76 159.307V158.508H154.123V159.307H148.76ZM158.698 162.739C157.875 162.739 157.197 162.562 156.664 162.206C156.135 161.851 155.81 161.357 155.689 160.724L156.664 160.562C156.768 160.961 157.004 161.279 157.372 161.517C157.745 161.751 158.204 161.868 158.75 161.868C159.283 161.868 159.704 161.758 160.011 161.537C160.319 161.312 160.473 161.006 160.473 160.62C160.473 160.404 160.423 160.228 160.323 160.094C160.228 159.955 160.031 159.827 159.732 159.71C159.433 159.593 158.987 159.455 158.393 159.294C157.756 159.121 157.258 158.948 156.898 158.774C156.538 158.601 156.283 158.402 156.131 158.176C155.979 157.947 155.903 157.667 155.903 157.338C155.903 156.939 156.016 156.59 156.241 156.291C156.467 155.988 156.779 155.754 157.177 155.589C157.576 155.42 158.04 155.336 158.568 155.336C159.097 155.336 159.569 155.423 159.985 155.596C160.406 155.765 160.744 156.003 160.999 156.311C161.255 156.619 161.407 156.976 161.454 157.383L160.479 157.559C160.414 157.147 160.209 156.822 159.862 156.584C159.52 156.341 159.084 156.216 158.555 156.207C158.057 156.194 157.652 156.289 157.34 156.493C157.028 156.692 156.872 156.959 156.872 157.292C156.872 157.479 156.928 157.639 157.041 157.773C157.154 157.903 157.357 158.027 157.652 158.144C157.951 158.261 158.376 158.389 158.926 158.527C159.572 158.692 160.079 158.865 160.447 159.047C160.815 159.229 161.077 159.444 161.233 159.691C161.389 159.938 161.467 160.243 161.467 160.607C161.467 161.27 161.22 161.793 160.726 162.174C160.237 162.551 159.561 162.739 158.698 162.739ZM165.529 162.739C164.705 162.739 164.027 162.562 163.494 162.206C162.965 161.851 162.64 161.357 162.519 160.724L163.494 160.562C163.598 160.961 163.834 161.279 164.203 161.517C164.575 161.751 165.035 161.868 165.581 161.868C166.114 161.868 166.534 161.758 166.842 161.537C167.149 161.312 167.303 161.006 167.303 160.62C167.303 160.404 167.253 160.228 167.154 160.094C167.058 159.955 166.861 159.827 166.562 159.71C166.263 159.593 165.817 159.455 165.223 159.294C164.586 159.121 164.088 158.948 163.728 158.774C163.368 158.601 163.113 158.402 162.961 158.176C162.809 157.947 162.734 157.667 162.734 157.338C162.734 156.939 162.846 156.59 163.072 156.291C163.297 155.988 163.609 155.754 164.008 155.589C164.406 155.42 164.87 155.336 165.399 155.336C165.927 155.336 166.4 155.423 166.816 155.596C167.236 155.765 167.574 156.003 167.83 156.311C168.085 156.619 168.237 156.976 168.285 157.383L167.31 157.559C167.245 157.147 167.039 156.822 166.692 156.584C166.35 156.341 165.914 156.216 165.386 156.207C164.887 156.194 164.482 156.289 164.17 156.493C163.858 156.692 163.702 156.959 163.702 157.292C163.702 157.479 163.758 157.639 163.871 157.773C163.984 157.903 164.187 158.027 164.482 158.144C164.781 158.261 165.206 158.389 165.756 158.527C166.402 158.692 166.909 158.865 167.277 159.047C167.645 159.229 167.908 159.444 168.064 159.691C168.22 159.938 168.298 160.243 168.298 160.607C168.298 161.27 168.051 161.793 167.557 162.174C167.067 162.551 166.391 162.739 165.529 162.739Z" fill="black"/>
<rect x="35" y="176" width="334" height="35" rx="4" fill="white"/>
<rect x="35" y="92" width="220" height="35" rx="4" fill="#E7DADA" fill-opacity="0.6"/>
<rect x="35" y="306" width="315" height="35" rx="4" fill="#E7DADA" fill-opacity="0.6"/>
<rect x="35" y="350" width="220" height="35" rx="4" fill="#E7DADA" fill-opacity="0.6"/>
<rect x="35" y="394" width="220" height="16" rx="4" fill="#E7DADA" fill-opacity="0.6"/>
<path d="M44.7787 233.999L41.5547 224.639H42.5492L45.4027 232.914L48.2757 224.639H49.2702L46.0462 233.999H44.7787ZM50.1215 225.647V224.574H51.077V225.647H50.1215ZM50.1215 233.999V226.979H51.077V233.999H50.1215ZM55.9962 234.194C55.3116 234.194 54.7179 234.042 54.2152 233.739C53.7169 233.436 53.3291 233.009 53.0517 232.459C52.7744 231.908 52.6357 231.263 52.6357 230.522C52.6357 229.755 52.7722 229.092 53.0452 228.533C53.3182 227.974 53.7017 227.542 54.1957 227.239C54.6941 226.936 55.2812 226.784 55.9572 226.784C56.6506 226.784 57.2421 226.944 57.7317 227.265C58.2214 227.581 58.5919 228.036 58.8432 228.63C59.0946 229.224 59.2094 229.932 59.1877 230.756H58.2127V230.418C58.1954 229.508 57.9982 228.821 57.6212 228.357C57.2486 227.893 56.7026 227.662 55.9832 227.662C55.2292 227.662 54.6507 227.906 54.2477 228.396C53.8491 228.886 53.6497 229.583 53.6497 230.489C53.6497 231.373 53.8491 232.06 54.2477 232.55C54.6507 233.035 55.2206 233.278 55.9572 233.278C56.4599 233.278 56.8976 233.163 57.2702 232.933C57.6472 232.699 57.9441 232.363 58.1607 231.926L59.0512 232.27C58.7739 232.881 58.3644 233.356 57.8227 233.694C57.2854 234.027 56.6766 234.194 55.9962 234.194ZM53.3117 230.756V229.956H58.6742V230.756H53.3117ZM61.8713 233.999L59.7263 226.973L60.6818 226.979L62.3458 232.433L64.0163 226.979H64.8873L66.5578 232.433L68.2348 226.979H69.1838L67.0388 233.999H66.2068L64.4518 228.409L62.7033 233.999H61.8713ZM72.9574 233.999V224.639H76.5714C76.6624 224.639 76.7642 224.643 76.8769 224.652C76.9939 224.656 77.1109 224.669 77.2279 224.691C77.7175 224.765 78.1314 224.936 78.4694 225.205C78.8117 225.469 79.0695 225.803 79.2429 226.206C79.4205 226.609 79.5094 227.055 79.5094 227.545C79.5094 228.03 79.4205 228.474 79.2429 228.877C79.0652 229.28 78.8052 229.616 78.4629 229.885C78.1249 230.149 77.7132 230.318 77.2279 230.392C77.1109 230.409 76.9939 230.422 76.8769 230.431C76.7642 230.439 76.6624 230.444 76.5714 230.444H73.9129V233.999H72.9574ZM73.9129 229.534H76.5454C76.6234 229.534 76.7144 229.529 76.8184 229.521C76.9224 229.512 77.0242 229.497 77.1239 229.475C77.4445 229.406 77.7067 229.274 77.9104 229.079C78.1184 228.884 78.2722 228.652 78.3719 228.383C78.4759 228.114 78.5279 227.835 78.5279 227.545C78.5279 227.254 78.4759 226.975 78.3719 226.706C78.2722 226.433 78.1184 226.199 77.9104 226.004C77.7067 225.809 77.4445 225.677 77.1239 225.608C77.0242 225.586 76.9224 225.573 76.8184 225.569C76.7144 225.56 76.6234 225.556 76.5454 225.556H73.9129V229.534ZM80.8031 233.999V226.979H81.6611V228.669L81.4921 228.448C81.5701 228.24 81.6719 228.049 81.7976 227.876C81.9232 227.698 82.0597 227.553 82.2071 227.441C82.3891 227.28 82.6014 227.159 82.8441 227.077C83.0867 226.99 83.3316 226.94 83.5786 226.927C83.8256 226.91 84.0509 226.927 84.2546 226.979V227.876C83.9989 227.811 83.7194 227.796 83.4161 227.831C83.1127 227.865 82.8332 227.987 82.5776 228.195C82.3436 228.377 82.1681 228.595 82.0511 228.851C81.9341 229.102 81.8561 229.371 81.8171 229.657C81.7781 229.939 81.7586 230.218 81.7586 230.496V233.999H80.8031ZM88.2922 234.194C87.5945 234.194 86.9987 234.036 86.5047 233.72C86.0107 233.403 85.6315 232.966 85.3672 232.407C85.1029 231.848 84.9707 231.206 84.9707 230.483C84.9707 229.746 85.105 229.1 85.3737 228.546C85.6424 227.991 86.0237 227.56 86.5177 227.252C87.016 226.94 87.6075 226.784 88.2922 226.784C88.9942 226.784 89.5922 226.942 90.0862 227.259C90.5845 227.571 90.9637 228.006 91.2237 228.565C91.488 229.12 91.6202 229.759 91.6202 230.483C91.6202 231.219 91.488 231.867 91.2237 232.426C90.9594 232.981 90.578 233.414 90.0797 233.726C89.5814 234.038 88.9855 234.194 88.2922 234.194ZM88.2922 233.278C89.0722 233.278 89.6529 233.02 90.0342 232.504C90.4155 231.984 90.6062 231.31 90.6062 230.483C90.6062 229.633 90.4134 228.957 90.0277 228.455C89.6464 227.952 89.0679 227.701 88.2922 227.701C87.7679 227.701 87.3345 227.82 86.9922 228.058C86.6542 228.292 86.4007 228.619 86.2317 229.04C86.067 229.456 85.9847 229.937 85.9847 230.483C85.9847 231.328 86.1797 232.006 86.5697 232.517C86.9597 233.024 87.5339 233.278 88.2922 233.278ZM92.014 237.119V236.196H92.4105C92.7269 236.196 92.9782 236.114 93.1645 235.949C93.3552 235.789 93.4505 235.518 93.4505 235.137V226.979H94.3995V235.377C94.3995 235.962 94.2587 236.398 93.977 236.684C93.6997 236.974 93.2729 237.119 92.6965 237.119H92.014ZM93.4505 225.647V224.574H94.3995V225.647H93.4505ZM99.2872 234.194C98.6026 234.194 98.0089 234.042 97.5062 233.739C97.0079 233.436 96.6201 233.009 96.3427 232.459C96.0654 231.908 95.9267 231.263 95.9267 230.522C95.9267 229.755 96.0632 229.092 96.3362 228.533C96.6092 227.974 96.9927 227.542 97.4867 227.239C97.9851 226.936 98.5722 226.784 99.2482 226.784C99.9416 226.784 100.533 226.944 101.023 227.265C101.512 227.581 101.883 228.036 102.134 228.63C102.386 229.224 102.5 229.932 102.479 230.756H101.504V230.418C101.486 229.508 101.289 228.821 100.912 228.357C100.54 227.893 99.9936 227.662 99.2742 227.662C98.5202 227.662 97.9417 227.906 97.5387 228.396C97.1401 228.886 96.9407 229.583 96.9407 230.489C96.9407 231.373 97.1401 232.06 97.5387 232.55C97.9417 233.035 98.5116 233.278 99.2482 233.278C99.7509 233.278 100.189 233.163 100.561 232.933C100.938 232.699 101.235 232.363 101.452 231.926L102.342 232.27C102.065 232.881 101.655 233.356 101.114 233.694C100.576 234.027 99.9676 234.194 99.2872 234.194ZM96.6027 230.756V229.956H101.965V230.756H96.6027ZM106.833 234.194C106.127 234.194 105.529 234.036 105.039 233.72C104.55 233.403 104.177 232.968 103.921 232.413C103.67 231.854 103.54 231.213 103.531 230.489C103.54 229.752 103.674 229.107 103.934 228.552C104.194 227.993 104.569 227.56 105.059 227.252C105.548 226.94 106.142 226.784 106.84 226.784C107.55 226.784 108.168 226.957 108.692 227.304C109.221 227.651 109.583 228.125 109.778 228.728L108.842 229.027C108.677 228.606 108.415 228.281 108.055 228.052C107.7 227.818 107.293 227.701 106.833 227.701C106.318 227.701 105.891 227.82 105.553 228.058C105.215 228.292 104.963 228.619 104.799 229.04C104.634 229.46 104.55 229.943 104.545 230.489C104.554 231.33 104.749 232.006 105.13 232.517C105.512 233.024 106.079 233.278 106.833 233.278C107.31 233.278 107.715 233.169 108.049 232.953C108.387 232.732 108.642 232.411 108.816 231.991L109.778 232.277C109.518 232.901 109.136 233.377 108.634 233.707C108.131 234.032 107.531 234.194 106.833 234.194ZM114.941 233.999C114.547 234.081 114.157 234.114 113.771 234.097C113.39 234.079 113.048 233.997 112.744 233.85C112.445 233.702 112.218 233.473 112.062 233.161C111.936 232.901 111.867 232.638 111.854 232.374C111.845 232.105 111.841 231.8 111.841 231.458V225.029H112.79V231.419C112.79 231.713 112.792 231.96 112.796 232.16C112.805 232.355 112.851 232.528 112.933 232.68C113.089 232.97 113.336 233.143 113.674 233.2C114.016 233.256 114.439 233.243 114.941 233.161V233.999ZM110.339 227.798V226.979H114.941V227.798H110.339ZM118.927 233.999V224.639H121.768C121.867 224.639 122.036 224.641 122.275 224.646C122.517 224.65 122.749 224.667 122.97 224.698C123.681 224.797 124.274 225.062 124.751 225.491C125.228 225.92 125.585 226.466 125.824 227.129C126.062 227.792 126.181 228.522 126.181 229.319C126.181 230.116 126.062 230.847 125.824 231.51C125.585 232.173 125.228 232.719 124.751 233.148C124.274 233.577 123.681 233.841 122.97 233.941C122.753 233.967 122.522 233.984 122.275 233.993C122.028 233.997 121.859 233.999 121.768 233.999H118.927ZM119.915 233.083H121.768C121.945 233.083 122.136 233.078 122.34 233.07C122.548 233.057 122.725 233.035 122.873 233.005C123.419 232.909 123.858 232.688 124.192 232.342C124.53 231.995 124.777 231.562 124.933 231.042C125.089 230.517 125.167 229.943 125.167 229.319C125.167 228.691 125.089 228.114 124.933 227.59C124.777 227.066 124.53 226.632 124.192 226.29C123.854 225.948 123.414 225.729 122.873 225.634C122.725 225.603 122.545 225.584 122.333 225.575C122.125 225.562 121.937 225.556 121.768 225.556H119.915V233.083ZM130.593 234.194C129.895 234.194 129.299 234.036 128.805 233.72C128.311 233.403 127.932 232.966 127.668 232.407C127.404 231.848 127.271 231.206 127.271 230.483C127.271 229.746 127.406 229.1 127.674 228.546C127.943 227.991 128.324 227.56 128.818 227.252C129.317 226.94 129.908 226.784 130.593 226.784C131.295 226.784 131.893 226.942 132.387 227.259C132.885 227.571 133.264 228.006 133.524 228.565C133.789 229.12 133.921 229.759 133.921 230.483C133.921 231.219 133.789 231.867 133.524 232.426C133.26 232.981 132.879 233.414 132.38 233.726C131.882 234.038 131.286 234.194 130.593 234.194ZM130.593 233.278C131.373 233.278 131.954 233.02 132.335 232.504C132.716 231.984 132.907 231.31 132.907 230.483C132.907 229.633 132.714 228.957 132.328 228.455C131.947 227.952 131.369 227.701 130.593 227.701C130.069 227.701 129.635 227.82 129.293 228.058C128.955 228.292 128.701 228.619 128.532 229.04C128.368 229.456 128.285 229.937 128.285 230.483C128.285 231.328 128.48 232.006 128.87 232.517C129.26 233.024 129.835 233.278 130.593 233.278ZM138.267 234.194C137.56 234.194 136.962 234.036 136.473 233.72C135.983 233.403 135.61 232.968 135.355 232.413C135.103 231.854 134.973 231.213 134.965 230.489C134.973 229.752 135.108 229.107 135.368 228.552C135.628 227.993 136.003 227.56 136.492 227.252C136.982 226.94 137.576 226.784 138.273 226.784C138.984 226.784 139.601 226.957 140.126 227.304C140.654 227.651 141.016 228.125 141.211 228.728L140.275 229.027C140.111 228.606 139.848 228.281 139.489 228.052C139.133 227.818 138.726 227.701 138.267 227.701C137.751 227.701 137.324 227.82 136.986 228.058C136.648 228.292 136.397 228.619 136.232 229.04C136.068 229.46 135.983 229.943 135.979 230.489C135.987 231.33 136.182 232.006 136.564 232.517C136.945 233.024 137.513 233.278 138.267 233.278C138.743 233.278 139.149 233.169 139.482 232.953C139.82 232.732 140.076 232.411 140.249 231.991L141.211 232.277C140.951 232.901 140.57 233.377 140.067 233.707C139.565 234.032 138.964 234.194 138.267 234.194ZM145.238 234.175C144.817 234.175 144.449 234.11 144.133 233.98C143.821 233.85 143.554 233.674 143.333 233.453C143.116 233.232 142.941 232.981 142.807 232.699C142.672 232.413 142.575 232.112 142.514 231.796C142.453 231.475 142.423 231.156 142.423 230.84V226.979H143.385V230.561C143.385 230.946 143.422 231.304 143.496 231.633C143.569 231.962 143.686 232.251 143.847 232.498C144.011 232.74 144.221 232.929 144.477 233.063C144.737 233.197 145.051 233.265 145.42 233.265C145.758 233.265 146.054 233.206 146.31 233.089C146.57 232.972 146.787 232.805 146.96 232.589C147.138 232.368 147.272 232.101 147.363 231.789C147.454 231.473 147.5 231.117 147.5 230.723L148.176 230.873C148.176 231.592 148.05 232.196 147.799 232.686C147.547 233.176 147.201 233.546 146.759 233.798C146.317 234.049 145.81 234.175 145.238 234.175ZM147.597 233.999V232.27H147.5V226.979H148.455V233.999H147.597ZM158.644 233.999L158.65 229.391C158.65 228.849 158.499 228.424 158.195 228.117C157.896 227.805 157.515 227.649 157.051 227.649C156.787 227.649 156.529 227.709 156.278 227.831C156.026 227.952 155.818 228.147 155.654 228.416C155.493 228.684 155.413 229.035 155.413 229.469L154.848 229.306C154.835 228.803 154.932 228.364 155.14 227.987C155.353 227.61 155.643 227.317 156.011 227.109C156.384 226.897 156.804 226.791 157.272 226.791C157.979 226.791 158.544 227.009 158.969 227.447C159.393 227.88 159.606 228.468 159.606 229.209L159.599 233.999H158.644ZM150.265 233.999V226.979H151.123V228.708H151.227V233.999H150.265ZM154.464 233.999L154.471 229.456C154.471 228.897 154.321 228.457 154.022 228.136C153.728 227.811 153.338 227.649 152.852 227.649C152.367 227.649 151.975 227.815 151.676 228.149C151.377 228.478 151.227 228.918 151.227 229.469L150.655 229.157C150.655 228.706 150.761 228.303 150.974 227.948C151.186 227.588 151.476 227.306 151.845 227.103C152.213 226.895 152.631 226.791 153.099 226.791C153.546 226.791 153.942 226.886 154.289 227.077C154.64 227.267 154.915 227.545 155.114 227.909C155.314 228.273 155.413 228.715 155.413 229.235L155.407 233.999H154.464ZM164.224 234.194C163.539 234.194 162.945 234.042 162.443 233.739C161.944 233.436 161.557 233.009 161.279 232.459C161.002 231.908 160.863 231.263 160.863 230.522C160.863 229.755 161 229.092 161.273 228.533C161.546 227.974 161.929 227.542 162.423 227.239C162.922 226.936 163.509 226.784 164.185 226.784C164.878 226.784 165.47 226.944 165.959 227.265C166.449 227.581 166.819 228.036 167.071 228.63C167.322 229.224 167.437 229.932 167.415 230.756H166.44V230.418C166.423 229.508 166.226 228.821 165.849 228.357C165.476 227.893 164.93 227.662 164.211 227.662C163.457 227.662 162.878 227.906 162.475 228.396C162.077 228.886 161.877 229.583 161.877 230.489C161.877 231.373 162.077 232.06 162.475 232.55C162.878 233.035 163.448 233.278 164.185 233.278C164.687 233.278 165.125 233.163 165.498 232.933C165.875 232.699 166.172 232.363 166.388 231.926L167.279 232.27C167.001 232.881 166.592 233.356 166.05 233.694C165.513 234.027 164.904 234.194 164.224 234.194ZM161.539 230.756V229.956H166.902V230.756H161.539ZM173.737 233.999V230.418C173.737 230.028 173.7 229.67 173.627 229.345C173.553 229.016 173.434 228.73 173.269 228.487C173.109 228.24 172.899 228.049 172.639 227.915C172.383 227.781 172.071 227.714 171.703 227.714C171.365 227.714 171.066 227.772 170.806 227.889C170.55 228.006 170.333 228.175 170.156 228.396C169.982 228.613 169.85 228.877 169.759 229.189C169.668 229.501 169.623 229.856 169.623 230.255L168.947 230.106C168.947 229.386 169.072 228.782 169.324 228.292C169.575 227.802 169.922 227.432 170.364 227.181C170.806 226.929 171.313 226.804 171.885 226.804C172.305 226.804 172.671 226.869 172.983 226.999C173.3 227.129 173.566 227.304 173.783 227.525C174.004 227.746 174.181 228 174.316 228.286C174.45 228.567 174.548 228.868 174.608 229.189C174.669 229.505 174.699 229.822 174.699 230.138V233.999H173.737ZM168.661 233.999V226.979H169.525V228.708H169.623V233.999H168.661ZM180.208 233.999C179.814 234.081 179.424 234.114 179.038 234.097C178.657 234.079 178.314 233.997 178.011 233.85C177.712 233.702 177.485 233.473 177.329 233.161C177.203 232.901 177.134 232.638 177.121 232.374C177.112 232.105 177.108 231.8 177.108 231.458V225.029H178.057V231.419C178.057 231.713 178.059 231.96 178.063 232.16C178.072 232.355 178.117 232.528 178.2 232.68C178.356 232.97 178.603 233.143 178.941 233.2C179.283 233.256 179.705 233.243 180.208 233.161V233.999ZM175.606 227.798V226.979H180.208V227.798H175.606ZM184.211 234.188C183.387 234.188 182.709 234.01 182.176 233.655C181.647 233.299 181.322 232.805 181.201 232.173L182.176 232.01C182.28 232.409 182.516 232.727 182.885 232.966C183.257 233.2 183.717 233.317 184.263 233.317C184.796 233.317 185.216 233.206 185.524 232.985C185.831 232.76 185.985 232.454 185.985 232.069C185.985 231.852 185.935 231.676 185.836 231.542C185.74 231.403 185.543 231.276 185.244 231.159C184.945 231.042 184.499 230.903 183.905 230.743C183.268 230.569 182.77 230.396 182.41 230.223C182.05 230.049 181.795 229.85 181.643 229.625C181.491 229.395 181.416 229.115 181.416 228.786C181.416 228.387 181.528 228.039 181.754 227.74C181.979 227.436 182.291 227.202 182.69 227.038C183.088 226.869 183.552 226.784 184.081 226.784C184.609 226.784 185.082 226.871 185.498 227.044C185.918 227.213 186.256 227.451 186.512 227.759C186.767 228.067 186.919 228.424 186.967 228.832L185.992 229.007C185.927 228.595 185.721 228.27 185.374 228.032C185.032 227.789 184.596 227.664 184.068 227.655C183.569 227.642 183.164 227.737 182.852 227.941C182.54 228.14 182.384 228.407 182.384 228.741C182.384 228.927 182.44 229.087 182.553 229.222C182.666 229.352 182.869 229.475 183.164 229.592C183.463 229.709 183.888 229.837 184.438 229.976C185.084 230.14 185.591 230.314 185.959 230.496C186.327 230.678 186.59 230.892 186.746 231.139C186.902 231.386 186.98 231.692 186.98 232.056C186.98 232.719 186.733 233.241 186.239 233.622C185.749 233.999 185.073 234.188 184.211 234.188Z" fill="black"/>
<path d="M43.7123 437L40.4883 427.64H41.4828L44.3363 435.914L47.2093 427.64H48.2038L44.9798 437H43.7123ZM51.3751 437.195C50.6905 437.195 50.0968 437.043 49.5941 436.74C49.0958 436.437 48.708 436.01 48.4306 435.459C48.1533 434.909 48.0146 434.263 48.0146 433.522C48.0146 432.755 48.1511 432.092 48.4241 431.533C48.6971 430.974 49.0806 430.543 49.5746 430.24C50.073 429.937 50.6601 429.785 51.3361 429.785C52.0295 429.785 52.621 429.945 53.1106 430.266C53.6003 430.582 53.9708 431.037 54.2221 431.631C54.4735 432.225 54.5883 432.933 54.5666 433.756H53.5916V433.419C53.5743 432.508 53.3771 431.822 53.0001 431.358C52.6275 430.894 52.0815 430.662 51.3621 430.662C50.6081 430.662 50.0296 430.907 49.6266 431.397C49.228 431.887 49.0286 432.584 49.0286 433.49C49.0286 434.374 49.228 435.061 49.6266 435.55C50.0296 436.036 50.5995 436.278 51.3361 436.278C51.8388 436.278 52.2765 436.164 52.6491 435.934C53.0261 435.7 53.323 435.364 53.5396 434.926L54.4301 435.271C54.1528 435.882 53.7433 436.356 53.2016 436.694C52.6643 437.028 52.0555 437.195 51.3751 437.195ZM48.6906 433.756V432.957H54.0531V433.756H48.6906ZM56.0091 437V429.98H56.8671V431.67L56.6981 431.449C56.7761 431.241 56.878 431.05 57.0036 430.877C57.1293 430.699 57.2658 430.554 57.4131 430.441C57.5951 430.281 57.8075 430.16 58.0501 430.077C58.2928 429.991 58.5376 429.941 58.7846 429.928C59.0316 429.911 59.257 429.928 59.4606 429.98V430.877C59.205 430.812 58.9255 430.797 58.6221 430.831C58.3188 430.866 58.0393 430.987 57.7836 431.195C57.5496 431.377 57.3741 431.596 57.2571 431.852C57.1401 432.103 57.0621 432.372 57.0231 432.658C56.9841 432.94 56.9646 433.219 56.9646 433.496V437H56.0091ZM60.8237 428.647V427.575H61.7792V428.647H60.8237ZM60.8237 437V429.98H61.7792V437H60.8237ZM64.4234 437V429.46C64.4234 429.278 64.432 429.098 64.4494 428.92C64.471 428.743 64.5122 428.574 64.5729 428.413C64.6335 428.249 64.7289 428.097 64.8589 427.958C65.0019 427.802 65.1579 427.69 65.3269 427.62C65.4959 427.547 65.6714 427.499 65.8534 427.477C66.0397 427.456 66.2217 427.445 66.3994 427.445H67.2964V428.251H66.4644C66.1004 428.251 65.8274 428.34 65.6454 428.517C65.4677 428.695 65.3789 428.975 65.3789 429.356V437H64.4234ZM63.2079 430.799V429.98H67.2964V430.799H63.2079ZM68.6614 428.647V427.575H69.6169V428.647H68.6614ZM68.6614 437V429.98H69.6169V437H68.6614ZM74.5314 437.195C73.8467 437.195 73.253 437.043 72.7504 436.74C72.252 436.437 71.8642 436.01 71.5869 435.459C71.3095 434.909 71.1709 434.263 71.1709 433.522C71.1709 432.755 71.3074 432.092 71.5804 431.533C71.8534 430.974 72.2369 430.543 72.7309 430.24C73.2292 429.937 73.8164 429.785 74.4924 429.785C75.1857 429.785 75.7772 429.945 76.2669 430.266C76.7565 430.582 77.127 431.037 77.3784 431.631C77.6297 432.225 77.7445 432.933 77.7229 433.756H76.7479V433.419C76.7305 432.508 76.5334 431.822 76.1564 431.358C75.7837 430.894 75.2377 430.662 74.5184 430.662C73.7644 430.662 73.1859 430.907 72.7829 431.397C72.3842 431.887 72.1849 432.584 72.1849 433.49C72.1849 434.374 72.3842 435.061 72.7829 435.55C73.1859 436.036 73.7557 436.278 74.4924 436.278C74.995 436.278 75.4327 436.164 75.8054 435.934C76.1824 435.7 76.4792 435.364 76.6959 434.926L77.5864 435.271C77.309 435.882 76.8995 436.356 76.3579 436.694C75.8205 437.028 75.2117 437.195 74.5314 437.195ZM71.8469 433.756V432.957H77.2094V433.756H71.8469ZM81.8889 437.195C81.2345 437.195 80.6755 437.033 80.2119 436.707C79.7482 436.378 79.3929 435.934 79.1459 435.375C78.8989 434.816 78.7754 434.185 78.7754 433.483C78.7754 432.786 78.8967 432.157 79.1394 431.598C79.3864 431.039 79.7395 430.597 80.1989 430.272C80.6582 429.947 81.2085 429.785 81.8499 429.785C82.5085 429.785 83.0632 429.945 83.5139 430.266C83.9645 430.587 84.3047 431.026 84.5344 431.585C84.7684 432.14 84.8854 432.773 84.8854 433.483C84.8854 434.181 84.7705 434.812 84.5409 435.375C84.3112 435.934 83.9732 436.378 83.5269 436.707C83.0805 437.033 82.5345 437.195 81.8889 437.195ZM81.9864 436.304C82.4847 436.304 82.8964 436.183 83.2214 435.94C83.5464 435.698 83.789 435.364 83.9494 434.939C84.1097 434.51 84.1899 434.025 84.1899 433.483C84.1899 432.933 84.1097 432.448 83.9494 432.027C83.789 431.603 83.5464 431.271 83.2214 431.033C82.9007 430.795 82.4955 430.675 82.0059 430.675C81.5032 430.675 81.0872 430.799 80.7579 431.046C80.4285 431.293 80.1837 431.629 80.0234 432.053C79.8674 432.478 79.7894 432.955 79.7894 433.483C79.7894 434.016 79.8695 434.497 80.0299 434.926C80.1945 435.351 80.4394 435.687 80.7644 435.934C81.0894 436.181 81.4967 436.304 81.9864 436.304ZM84.1899 437V431.715H84.0859V427.64H85.0479V437H84.1899ZM89.474 437V427.64H93.088C93.6123 427.64 94.0695 427.748 94.4595 427.965C94.8495 428.182 95.1528 428.474 95.3695 428.842C95.5861 429.206 95.6945 429.609 95.6945 430.051C95.6945 430.554 95.5601 431.003 95.2915 431.397C95.0228 431.787 94.6631 432.058 94.2125 432.209L94.1995 431.891C94.8061 432.064 95.2828 432.368 95.6295 432.801C95.9761 433.234 96.1495 433.759 96.1495 434.374C96.1495 434.916 96.0346 435.384 95.805 435.778C95.5753 436.168 95.2525 436.469 94.8365 436.681C94.4205 436.894 93.9373 437 93.387 437H89.474ZM90.436 436.083H93.153C93.5343 436.083 93.8766 436.016 94.18 435.882C94.4833 435.743 94.7216 435.548 94.895 435.297C95.0726 435.046 95.1615 434.742 95.1615 434.387C95.1615 434.04 95.0813 433.728 94.921 433.451C94.7606 433.174 94.5418 432.953 94.2645 432.788C93.9915 432.619 93.6795 432.534 93.3285 432.534H90.436V436.083ZM90.436 431.631H93.0815C93.3805 431.631 93.6535 431.564 93.9005 431.429C94.1475 431.291 94.3425 431.102 94.4855 430.864C94.6328 430.626 94.7065 430.35 94.7065 430.038C94.7065 429.596 94.5526 429.237 94.245 428.959C93.9416 428.682 93.5538 428.543 93.0815 428.543H90.436V431.631ZM98.4476 440.12L99.8061 436.434L99.8256 437.527L96.7511 429.98H97.7651L100.287 436.291H99.8711L102.198 429.98H103.173L99.4031 440.12H98.4476ZM106.905 437V427.64H110.519C110.61 427.64 110.711 427.644 110.824 427.653C110.941 427.657 111.058 427.67 111.175 427.692C111.665 427.766 112.079 427.937 112.417 428.205C112.759 428.47 113.017 428.803 113.19 429.206C113.368 429.609 113.457 430.056 113.457 430.545C113.457 431.252 113.27 431.865 112.898 432.385C112.525 432.905 111.992 433.232 111.299 433.366L110.967 433.444H107.86V437H106.905ZM112.573 437L110.727 433.191L111.643 432.84L113.671 437H112.573ZM107.86 432.534H110.493C110.571 432.534 110.662 432.53 110.766 432.521C110.87 432.513 110.971 432.498 111.071 432.476C111.392 432.407 111.654 432.274 111.858 432.079C112.066 431.884 112.219 431.653 112.319 431.384C112.423 431.115 112.475 430.836 112.475 430.545C112.475 430.255 112.423 429.976 112.319 429.707C112.219 429.434 112.066 429.2 111.858 429.005C111.654 428.81 111.392 428.678 111.071 428.608C110.971 428.587 110.87 428.574 110.766 428.569C110.662 428.561 110.571 428.556 110.493 428.556H107.86V432.534ZM118.076 437.195C117.392 437.195 116.798 437.043 116.295 436.74C115.797 436.437 115.409 436.01 115.132 435.459C114.854 434.909 114.716 434.263 114.716 433.522C114.716 432.755 114.852 432.092 115.125 431.533C115.398 430.974 115.782 430.543 116.276 430.24C116.774 429.937 117.361 429.785 118.037 429.785C118.731 429.785 119.322 429.945 119.812 430.266C120.301 430.582 120.672 431.037 120.923 431.631C121.175 432.225 121.289 432.933 121.268 433.756H120.293V433.419C120.275 432.508 120.078 431.822 119.701 431.358C119.329 430.894 118.783 430.662 118.063 430.662C117.309 430.662 116.731 430.907 116.328 431.397C115.929 431.887 115.73 432.584 115.73 433.49C115.73 434.374 115.929 435.061 116.328 435.55C116.731 436.036 117.301 436.278 118.037 436.278C118.54 436.278 118.978 436.164 119.35 435.934C119.727 435.7 120.024 435.364 120.241 434.926L121.131 435.271C120.854 435.882 120.444 436.356 119.903 436.694C119.365 437.028 118.757 437.195 118.076 437.195ZM115.392 433.756V432.957H120.754V433.756H115.392ZM125.499 440.315C125.139 440.315 124.784 440.261 124.433 440.153C124.086 440.049 123.765 439.882 123.471 439.652C123.176 439.427 122.929 439.132 122.73 438.768L123.594 438.287C123.789 438.677 124.062 438.957 124.413 439.126C124.769 439.299 125.13 439.386 125.499 439.386C126.006 439.386 126.415 439.29 126.727 439.1C127.044 438.913 127.273 438.636 127.416 438.268C127.559 437.899 127.629 437.44 127.624 436.889V435.017H127.735V429.98H128.586V436.902C128.586 437.102 128.58 437.293 128.567 437.475C128.558 437.661 128.539 437.843 128.508 438.021C128.426 438.545 128.255 438.976 127.995 439.314C127.739 439.652 127.401 439.903 126.981 440.068C126.565 440.233 126.071 440.315 125.499 440.315ZM125.434 437.195C124.779 437.195 124.22 437.033 123.757 436.707C123.293 436.378 122.938 435.934 122.691 435.375C122.444 434.816 122.32 434.185 122.32 433.483C122.32 432.786 122.442 432.157 122.684 431.598C122.931 431.039 123.284 430.597 123.744 430.272C124.203 429.947 124.753 429.785 125.395 429.785C126.053 429.785 126.608 429.945 127.059 430.266C127.509 430.587 127.85 431.026 128.079 431.585C128.313 432.14 128.43 432.773 128.43 433.483C128.43 434.181 128.315 434.812 128.086 435.375C127.856 435.934 127.518 436.378 127.072 436.707C126.625 437.033 126.079 437.195 125.434 437.195ZM125.531 436.304C126.03 436.304 126.441 436.183 126.766 435.94C127.091 435.698 127.334 435.364 127.494 434.939C127.655 434.51 127.735 434.025 127.735 433.483C127.735 432.933 127.655 432.448 127.494 432.027C127.334 431.603 127.091 431.271 126.766 431.033C126.446 430.795 126.04 430.675 125.551 430.675C125.048 430.675 124.632 430.799 124.303 431.046C123.973 431.293 123.729 431.629 123.568 432.053C123.412 432.478 123.334 432.955 123.334 433.483C123.334 434.016 123.414 434.497 123.575 434.926C123.739 435.351 123.984 435.687 124.309 435.934C124.634 436.181 125.042 436.304 125.531 436.304ZM133.088 437.176C132.668 437.176 132.299 437.111 131.983 436.98C131.671 436.851 131.405 436.675 131.184 436.454C130.967 436.233 130.791 435.982 130.657 435.7C130.523 435.414 130.425 435.113 130.365 434.796C130.304 434.476 130.274 434.157 130.274 433.841V429.98H131.236V433.561C131.236 433.947 131.272 434.305 131.346 434.634C131.42 434.963 131.537 435.251 131.697 435.498C131.862 435.741 132.072 435.93 132.328 436.064C132.588 436.198 132.902 436.265 133.27 436.265C133.608 436.265 133.905 436.207 134.161 436.09C134.421 435.973 134.637 435.806 134.811 435.589C134.988 435.368 135.123 435.102 135.214 434.79C135.305 434.474 135.35 434.118 135.35 433.724L136.026 433.873C136.026 434.593 135.9 435.197 135.649 435.687C135.398 436.177 135.051 436.547 134.609 436.798C134.167 437.05 133.66 437.176 133.088 437.176ZM135.448 437V435.271H135.35V429.98H136.306V437H135.448ZM140.131 437.195C139.602 437.195 139.158 437.1 138.798 436.909C138.443 436.718 138.177 436.465 137.999 436.148C137.821 435.832 137.732 435.488 137.732 435.115C137.732 434.734 137.808 434.409 137.96 434.14C138.116 433.867 138.326 433.644 138.59 433.47C138.859 433.297 139.169 433.165 139.52 433.074C139.875 432.987 140.267 432.911 140.696 432.846C141.13 432.777 141.552 432.719 141.964 432.671C142.38 432.619 142.744 432.569 143.056 432.521L142.718 432.729C142.731 432.036 142.597 431.523 142.315 431.189C142.033 430.855 141.544 430.688 140.846 430.688C140.365 430.688 139.958 430.797 139.624 431.013C139.295 431.23 139.063 431.572 138.928 432.04L137.999 431.767C138.159 431.139 138.482 430.652 138.967 430.305C139.453 429.958 140.083 429.785 140.859 429.785C141.5 429.785 142.044 429.906 142.49 430.149C142.941 430.387 143.26 430.734 143.446 431.189C143.533 431.393 143.589 431.62 143.615 431.871C143.641 432.123 143.654 432.378 143.654 432.638V437H142.802V435.238L143.049 435.342C142.811 435.945 142.441 436.404 141.938 436.72C141.435 437.037 140.833 437.195 140.131 437.195ZM140.241 436.369C140.688 436.369 141.078 436.289 141.411 436.129C141.745 435.969 142.014 435.75 142.217 435.472C142.421 435.191 142.553 434.874 142.614 434.523C142.666 434.298 142.694 434.051 142.698 433.782C142.703 433.509 142.705 433.306 142.705 433.171L143.069 433.36C142.744 433.403 142.391 433.447 142.009 433.49C141.632 433.533 141.26 433.583 140.891 433.639C140.527 433.696 140.198 433.763 139.903 433.841C139.704 433.897 139.511 433.977 139.325 434.081C139.139 434.181 138.985 434.315 138.863 434.484C138.746 434.653 138.688 434.864 138.688 435.115C138.688 435.319 138.738 435.516 138.837 435.706C138.941 435.897 139.106 436.055 139.331 436.181C139.561 436.307 139.864 436.369 140.241 436.369ZM149.168 437C148.774 437.082 148.384 437.115 147.998 437.098C147.617 437.08 147.274 436.998 146.971 436.85C146.672 436.703 146.445 436.473 146.289 436.161C146.163 435.901 146.094 435.639 146.081 435.375C146.072 435.106 146.068 434.801 146.068 434.458V428.03H147.017V434.419C147.017 434.714 147.019 434.961 147.023 435.16C147.032 435.355 147.077 435.529 147.16 435.68C147.316 435.971 147.563 436.144 147.901 436.2C148.243 436.257 148.665 436.244 149.168 436.161V437ZM144.566 430.799V429.98H149.168V430.799H144.566ZM153.229 437.195C152.531 437.195 151.935 437.037 151.441 436.72C150.947 436.404 150.568 435.966 150.304 435.407C150.039 434.848 149.907 434.207 149.907 433.483C149.907 432.747 150.042 432.101 150.31 431.546C150.579 430.992 150.96 430.561 151.454 430.253C151.953 429.941 152.544 429.785 153.229 429.785C153.931 429.785 154.529 429.943 155.023 430.259C155.521 430.571 155.9 431.007 156.16 431.566C156.425 432.121 156.557 432.76 156.557 433.483C156.557 434.22 156.425 434.868 156.16 435.427C155.896 435.982 155.515 436.415 155.016 436.727C154.518 437.039 153.922 437.195 153.229 437.195ZM153.229 436.278C154.009 436.278 154.589 436.021 154.971 435.505C155.352 434.985 155.543 434.311 155.543 433.483C155.543 432.634 155.35 431.958 154.964 431.455C154.583 430.953 154.004 430.701 153.229 430.701C152.704 430.701 152.271 430.821 151.929 431.059C151.591 431.293 151.337 431.62 151.168 432.04C151.004 432.456 150.921 432.937 150.921 433.483C150.921 434.328 151.116 435.007 151.506 435.518C151.896 436.025 152.47 436.278 153.229 436.278ZM157.991 437V429.98H158.849V431.67L158.68 431.449C158.758 431.241 158.859 431.05 158.985 430.877C159.111 430.699 159.247 430.554 159.395 430.441C159.577 430.281 159.789 430.16 160.032 430.077C160.274 429.991 160.519 429.941 160.766 429.928C161.013 429.911 161.238 429.928 161.442 429.98V430.877C161.186 430.812 160.907 430.797 160.604 430.831C160.3 430.866 160.021 430.987 159.765 431.195C159.531 431.377 159.356 431.596 159.239 431.852C159.122 432.103 159.044 432.372 159.005 432.658C158.966 432.94 158.946 433.219 158.946 433.496V437H157.991ZM163.587 440.12L164.946 436.434L164.965 437.527L161.891 429.98H162.905L165.427 436.291H165.011L167.338 429.98H168.313L164.543 440.12H163.587ZM174.647 437V427.64H178.261C178.785 427.64 179.242 427.748 179.632 427.965C180.022 428.182 180.326 428.474 180.542 428.842C180.759 429.206 180.867 429.609 180.867 430.051C180.867 430.554 180.733 431.003 180.464 431.397C180.196 431.787 179.836 432.058 179.385 432.209L179.372 431.891C179.979 432.064 180.456 432.368 180.802 432.801C181.149 433.234 181.322 433.759 181.322 434.374C181.322 434.916 181.207 435.384 180.978 435.778C180.748 436.168 180.425 436.469 180.009 436.681C179.593 436.894 179.11 437 178.56 437H174.647ZM175.609 436.083H178.326C178.707 436.083 179.049 436.016 179.353 435.882C179.656 435.743 179.894 435.548 180.068 435.297C180.245 435.046 180.334 434.742 180.334 434.387C180.334 434.04 180.254 433.728 180.094 433.451C179.933 433.174 179.715 432.953 179.437 432.788C179.164 432.619 178.852 432.534 178.501 432.534H175.609V436.083ZM175.609 431.631H178.254C178.553 431.631 178.826 431.564 179.073 431.429C179.32 431.291 179.515 431.102 179.658 430.864C179.806 430.626 179.879 430.35 179.879 430.038C179.879 429.596 179.725 429.237 179.418 428.959C179.114 428.682 178.727 428.543 178.254 428.543H175.609V431.631ZM185.551 437.195C184.853 437.195 184.257 437.037 183.763 436.72C183.269 436.404 182.89 435.966 182.626 435.407C182.362 434.848 182.229 434.207 182.229 433.483C182.229 432.747 182.364 432.101 182.632 431.546C182.901 430.992 183.282 430.561 183.776 430.253C184.275 429.941 184.866 429.785 185.551 429.785C186.253 429.785 186.851 429.943 187.345 430.259C187.843 430.571 188.222 431.007 188.482 431.566C188.747 432.121 188.879 432.76 188.879 433.483C188.879 434.22 188.747 434.868 188.482 435.427C188.218 435.982 187.837 436.415 187.338 436.727C186.84 437.039 186.244 437.195 185.551 437.195ZM185.551 436.278C186.331 436.278 186.912 436.021 187.293 435.505C187.674 434.985 187.865 434.311 187.865 433.483C187.865 432.634 187.672 431.958 187.286 431.455C186.905 430.953 186.327 430.701 185.551 430.701C185.027 430.701 184.593 430.821 184.251 431.059C183.913 431.293 183.659 431.62 183.49 432.04C183.326 432.456 183.243 432.937 183.243 433.483C183.243 434.328 183.438 435.007 183.828 435.518C184.218 436.025 184.793 436.278 185.551 436.278ZM193.036 437.195C192.382 437.195 191.823 437.033 191.359 436.707C190.896 436.378 190.54 435.934 190.293 435.375C190.046 434.816 189.923 434.185 189.923 433.483C189.923 432.786 190.044 432.157 190.287 431.598C190.534 431.039 190.887 430.597 191.346 430.272C191.806 429.947 192.356 429.785 192.997 429.785C193.656 429.785 194.211 429.945 194.661 430.266C195.112 430.587 195.452 431.026 195.682 431.585C195.916 432.14 196.033 432.773 196.033 433.483C196.033 434.181 195.918 434.812 195.688 435.375C195.459 435.934 195.121 436.378 194.674 436.707C194.228 437.033 193.682 437.195 193.036 437.195ZM193.134 436.304C193.632 436.304 194.044 436.183 194.369 435.94C194.694 435.698 194.936 435.364 195.097 434.939C195.257 434.51 195.337 434.025 195.337 433.483C195.337 432.933 195.257 432.448 195.097 432.027C194.936 431.603 194.694 431.271 194.369 431.033C194.048 430.795 193.643 430.675 193.153 430.675C192.651 430.675 192.235 430.799 191.905 431.046C191.576 431.293 191.331 431.629 191.171 432.053C191.015 432.478 190.937 432.955 190.937 433.483C190.937 434.016 191.017 434.497 191.177 434.926C191.342 435.351 191.587 435.687 191.912 435.934C192.237 436.181 192.644 436.304 193.134 436.304ZM195.337 437V431.715H195.233V427.64H196.195V437H195.337ZM198.149 428.647V427.575H199.104V428.647H198.149ZM198.149 437V429.98H199.104V437H198.149ZM204.024 437.195C203.339 437.195 202.745 437.043 202.243 436.74C201.744 436.437 201.356 436.01 201.079 435.459C200.802 434.909 200.663 434.263 200.663 433.522C200.663 432.755 200.8 432.092 201.073 431.533C201.346 430.974 201.729 430.543 202.223 430.24C202.721 429.937 203.309 429.785 203.985 429.785C204.678 429.785 205.269 429.945 205.759 430.266C206.249 430.582 206.619 431.037 206.871 431.631C207.122 432.225 207.237 432.933 207.215 433.756H206.24V433.419C206.223 432.508 206.026 431.822 205.649 431.358C205.276 430.894 204.73 430.662 204.011 430.662C203.257 430.662 202.678 430.907 202.275 431.397C201.876 431.887 201.677 432.584 201.677 433.49C201.677 434.374 201.876 435.061 202.275 435.55C202.678 436.036 203.248 436.278 203.985 436.278C204.487 436.278 204.925 436.164 205.298 435.934C205.675 435.7 205.971 435.364 206.188 434.926L207.079 435.271C206.801 435.882 206.392 436.356 205.85 436.694C205.313 437.028 204.704 437.195 204.024 437.195ZM201.339 433.756V432.957H206.702V433.756H201.339ZM211.277 437.189C210.454 437.189 209.776 437.011 209.243 436.655C208.714 436.3 208.389 435.806 208.268 435.173L209.243 435.011C209.347 435.41 209.583 435.728 209.951 435.966C210.324 436.2 210.783 436.317 211.329 436.317C211.862 436.317 212.282 436.207 212.59 435.986C212.898 435.761 213.052 435.455 213.052 435.069C213.052 434.853 213.002 434.677 212.902 434.543C212.807 434.404 212.61 434.276 212.311 434.159C212.012 434.042 211.565 433.904 210.972 433.743C210.335 433.57 209.836 433.397 209.477 433.223C209.117 433.05 208.861 432.851 208.71 432.625C208.558 432.396 208.482 432.116 208.482 431.787C208.482 431.388 208.595 431.039 208.82 430.74C209.045 430.437 209.357 430.203 209.756 430.038C210.155 429.869 210.618 429.785 211.147 429.785C211.676 429.785 212.148 429.872 212.564 430.045C212.984 430.214 213.322 430.452 213.578 430.76C213.834 431.068 213.985 431.425 214.033 431.832L213.058 432.008C212.993 431.596 212.787 431.271 212.441 431.033C212.098 430.79 211.663 430.665 211.134 430.656C210.636 430.643 210.231 430.738 209.919 430.942C209.607 431.141 209.451 431.408 209.451 431.741C209.451 431.928 209.507 432.088 209.62 432.222C209.732 432.352 209.936 432.476 210.231 432.593C210.53 432.71 210.954 432.838 211.505 432.976C212.15 433.141 212.657 433.314 213.026 433.496C213.394 433.678 213.656 433.893 213.812 434.14C213.968 434.387 214.046 434.692 214.046 435.056C214.046 435.719 213.799 436.242 213.305 436.623C212.815 437 212.139 437.189 211.277 437.189Z" fill="#FF0000"/>
<rect x="35" y="245" width="334" height="35" rx="4" fill="white"/>
</svg>
