<svg width="85" height="85" viewBox="0 0 85 85" fill="none" xmlns="http://www.w3.org/2000/svg">
<g filter="url(#filter0_d_1_90)">
<path d="M42.5479 73.4216C61.1101 73.4216 76.1577 58.1927 76.1577 39.4068C76.1577 20.621 61.1101 5.39209 42.5479 5.39209C23.9857 5.39209 8.93811 20.621 8.93811 39.4068C8.93811 58.1927 23.9857 73.4216 42.5479 73.4216Z" stroke="#F60204" stroke-width="4"/>
</g>
<path d="M44.3061 41.3587H43.271V35.6677C43.271 35.5305 43.2165 35.3988 43.1195 35.3018C43.0224 35.2047 42.8908 35.1502 42.7535 35.1502H41.8756C41.5692 35.1501 41.2696 35.2409 41.0147 35.411L40.0235 36.0718C39.967 36.1095 39.9184 36.1579 39.8807 36.2143C39.8429 36.2707 39.8166 36.334 39.8033 36.4005C39.79 36.4671 39.7899 36.5356 39.8031 36.6022C39.8163 36.6688 39.8424 36.7321 39.8801 36.7886L40.4543 37.6495C40.4919 37.706 40.5403 37.7545 40.5967 37.7923C40.6531 37.8301 40.7164 37.8563 40.783 37.8697C40.8495 37.883 40.9181 37.883 40.9847 37.8699C41.0512 37.8567 41.1146 37.8305 41.171 37.7928L41.2018 37.7726V41.3579H40.1709C40.0336 41.3579 39.902 41.4124 39.8049 41.5095C39.7079 41.6065 39.6533 41.7382 39.6533 41.8754V42.9088C39.6533 43.0461 39.7079 43.1777 39.8049 43.2747C39.902 43.3718 40.0336 43.4263 40.1709 43.4263H44.3093C44.4466 43.4263 44.5782 43.3718 44.6752 43.2747C44.7723 43.1777 44.8268 43.0461 44.8268 42.9088V41.8754C44.8267 41.8072 44.8131 41.7398 44.7869 41.6769C44.7606 41.614 44.7222 41.5569 44.6738 41.5089C44.6254 41.4608 44.568 41.4229 44.5049 41.3971C44.4418 41.3713 44.3742 41.3583 44.3061 41.3587ZM60.8607 26.8733H23.613C23.0642 26.8733 22.5379 27.0913 22.1498 27.4794C21.7617 27.8674 21.5437 28.3937 21.5437 28.9425V49.6356C21.5437 50.1844 21.7617 50.7107 22.1498 51.0988C22.5379 51.4869 23.0642 51.7049 23.613 51.7049H60.8607C61.4092 51.7044 61.9351 51.4862 62.3228 51.0982C62.7105 50.7102 62.9283 50.1841 62.9283 49.6356V28.9425C62.9283 28.394 62.7105 27.8679 62.3228 27.4799C61.9351 27.0919 61.4092 26.8737 60.8607 26.8733ZM24.648 48.6006V44.4622C25.1915 44.4622 25.7296 44.5692 26.2317 44.7772C26.7338 44.9851 27.19 45.29 27.5743 45.6743C27.9586 46.0586 28.2634 46.5148 28.4714 47.0169C28.6794 47.519 28.7864 48.0571 28.7864 48.6006H24.648ZM24.648 34.1152V29.9775H28.7864C28.7864 31.0751 28.3504 32.1278 27.5743 32.9039C26.7982 33.68 25.7456 34.116 24.648 34.116V34.1152ZM42.2368 46.5314C38.8086 46.5314 36.0292 43.2919 36.0292 39.2887C36.0292 35.2855 38.8086 32.046 42.2368 32.046C45.665 32.046 48.4445 35.2855 48.4445 39.2887C48.4445 43.2919 45.6642 46.5314 42.2368 46.5314ZM59.8257 48.6006H55.6872C55.6872 47.503 56.1233 46.4504 56.8994 45.6743C57.6755 44.8982 58.7281 44.4622 59.8257 44.4622V48.6006ZM59.8257 34.1152C58.7281 34.1152 57.6755 33.6792 56.8994 32.9031C56.1233 32.127 55.6872 31.0743 55.6872 29.9767H59.8257V34.1152Z" fill="#F60204"/>
<defs>
<filter id="filter0_d_1_90" x="0.93811" y="0.39209" width="83.2196" height="84.0295" filterUnits="userSpaceOnUse" color-interpolation-filters="sRGB">
<feFlood flood-opacity="0" result="BackgroundImageFix"/>
<feColorMatrix in="SourceAlpha" type="matrix" values="0 0 0 0 0 0 0 0 0 0 0 0 0 0 0 0 0 0 127 0" result="hardAlpha"/>
<feOffset dy="3"/>
<feGaussianBlur stdDeviation="3"/>
<feColorMatrix type="matrix" values="0 0 0 0 0 0 0 0 0 0 0 0 0 0 0 0 0 0 0.161 0"/>
<feBlend mode="normal" in2="BackgroundImageFix" result="effect1_dropShadow_1_90"/>
<feBlend mode="normal" in="SourceGraphic" in2="effect1_dropShadow_1_90" result="shape"/>
</filter>
</defs>
</svg>
