<svg width="84" height="84" viewBox="0 0 84 84" fill="none" xmlns="http://www.w3.org/2000/svg">
<g filter="url(#filter0_d_1_72)">
<path d="M41.7763 3.8667C34.7635 3.86654 27.9082 5.94593 22.0772 9.84191C16.2462 13.7379 11.7014 19.2755 9.01762 25.7544C6.33383 32.2333 5.63155 39.3626 6.99958 46.2407C8.3676 53.1187 11.7445 59.4367 16.7032 64.3955C21.662 69.3544 27.9798 72.7314 34.8579 74.0996C41.7359 75.4678 48.8652 74.7656 55.3442 72.082C61.8232 69.3984 67.3609 64.8537 71.257 59.0228C75.1531 53.1919 77.2326 46.3366 77.2326 39.3238C77.2285 29.9214 73.4917 20.9052 66.8433 14.2566C60.1948 7.60805 51.1787 3.87099 41.7763 3.8667ZM41.7763 14.5036C43.8801 14.5038 45.9365 15.1277 47.6856 16.2966C49.4347 17.4655 50.798 19.1268 51.6029 21.0705C52.4079 23.0141 52.6184 25.1528 52.2079 27.2161C51.7974 29.2794 50.7843 31.1747 49.2966 32.6622C47.809 34.1497 45.9137 35.1627 43.8504 35.5731C41.787 35.9834 39.6483 35.7727 37.7047 34.9676C35.7612 34.1625 34.0999 32.7992 32.9312 31.0499C31.7624 29.3007 31.1386 27.2442 31.1386 25.1405C31.1368 23.7431 31.4107 22.359 31.9447 21.0676C32.4786 19.7762 33.2621 18.6028 34.2503 17.6147C35.2385 16.6266 36.4119 15.8432 37.7034 15.3094C38.9948 14.7755 40.3789 14.5017 41.7763 14.5036ZM41.7763 64.8519C37.5634 64.8515 33.4161 63.8085 29.7042 61.8161C25.9923 59.8236 22.8311 56.9435 20.5025 53.4327C20.6086 46.377 34.685 42.5123 41.7763 42.5123C48.8319 42.5123 62.944 46.377 63.0501 53.4327C60.7214 56.9432 57.5601 59.823 53.8482 61.8152C50.1363 63.8073 45.989 64.85 41.7763 64.8503V64.8519Z" fill="#F60204"/>
</g>
<defs>
<filter id="filter0_d_1_72" x="0.318359" y="0.866699" width="82.9142" height="82.9143" filterUnits="userSpaceOnUse" color-interpolation-filters="sRGB">
<feFlood flood-opacity="0" result="BackgroundImageFix"/>
<feColorMatrix in="SourceAlpha" type="matrix" values="0 0 0 0 0 0 0 0 0 0 0 0 0 0 0 0 0 0 127 0" result="hardAlpha"/>
<feOffset dy="3"/>
<feGaussianBlur stdDeviation="3"/>
<feColorMatrix type="matrix" values="0 0 0 0 0 0 0 0 0 0 0 0 0 0 0 0 0 0 0.161 0"/>
<feBlend mode="normal" in2="BackgroundImageFix" result="effect1_dropShadow_1_72"/>
<feBlend mode="normal" in="SourceGraphic" in2="effect1_dropShadow_1_72" result="shape"/>
</filter>
</defs>
</svg>
