<svg width="25" height="25" viewBox="0 0 25 25" fill="none" xmlns="http://www.w3.org/2000/svg">
<path d="M2.08331 6.24471C2.08331 5.67179 2.5479 5.20825 3.11977 5.20825H11.4635C11.7384 5.20825 12.002 5.31745 12.1964 5.51182C12.3908 5.7062 12.5 5.96982 12.5 6.24471C12.5 6.5196 12.3908 6.78322 12.1964 6.9776C12.002 7.17197 11.7384 7.28117 11.4635 7.28117H3.11977C2.84489 7.28117 2.58126 7.17197 2.38688 6.9776C2.19251 6.78322 2.08331 6.5196 2.08331 6.24471Z" fill="#030919"/>
<path d="M2.08331 12.4998C2.08331 11.9269 2.5479 11.4634 3.11977 11.4634H21.8802C22.1551 11.4634 22.4187 11.5726 22.6131 11.767C22.8074 11.9613 22.9166 12.225 22.9166 12.4998C22.9166 12.7747 22.8074 13.0384 22.6131 13.2327C22.4187 13.4271 22.1551 13.5363 21.8802 13.5363H3.11977C2.84489 13.5363 2.58126 13.4271 2.38688 13.2327C2.19251 13.0384 2.08331 12.7747 2.08331 12.4998Z" fill="#030919"/>
<path d="M3.11977 17.7185C2.84489 17.7185 2.58126 17.8277 2.38688 18.0221C2.19251 18.2165 2.08331 18.4801 2.08331 18.755C2.08331 19.0299 2.19251 19.2935 2.38688 19.4879C2.58126 19.6822 2.84489 19.7914 3.11977 19.7914H15.6302C15.9051 19.7914 16.1687 19.6822 16.3631 19.4879C16.5574 19.2935 16.6666 19.0299 16.6666 18.755C16.6666 18.4801 16.5574 18.2165 16.3631 18.0221C16.1687 17.8277 15.9051 17.7185 15.6302 17.7185H3.11977Z" fill="#030919"/>
</svg>
