<svg width="648" height="597" viewBox="0 0 648 597" fill="none" xmlns="http://www.w3.org/2000/svg">
<path d="M0 0H465V406.5V452H416.5H0V0Z" fill="#F3F7FA"/>
<path d="M29.795 58.999V42.8481H31.4437V58.999H29.795ZM43.5546 58.999V52.8191C43.5546 52.1461 43.4911 51.5292 43.3639 50.9684C43.2368 50.4002 43.0312 49.9067 42.7471 49.4879C42.4704 49.0617 42.1078 48.7327 41.6591 48.5009C41.218 48.2691 40.6796 48.1532 40.044 48.1532C39.4608 48.1532 38.9449 48.2542 38.4962 48.4561C38.0551 48.658 37.6812 48.9496 37.3746 49.3309C37.0756 49.7048 36.8475 50.1609 36.6905 50.6993C36.5335 51.2376 36.4549 51.8508 36.4549 52.5387L35.2885 52.2807C35.2885 51.0395 35.5053 49.9964 35.939 49.1515C36.3727 48.3065 36.9709 47.6672 37.7336 47.2335C38.4962 46.7999 39.3711 46.583 40.3581 46.583C41.0834 46.583 41.7152 46.6952 42.2536 46.9195C42.7994 47.1438 43.2593 47.4466 43.6331 47.828C44.0145 48.2093 44.321 48.6467 44.5528 49.1402C44.7846 49.6263 44.9529 50.1459 45.0575 50.6993C45.1622 51.2451 45.2146 51.7909 45.2146 52.3368V58.999H43.5546ZM34.795 58.999V46.8858H36.2867V49.8693H36.4549V58.999H34.795ZM52.7588 59.3355C51.6298 59.3355 50.6652 59.0551 49.8651 58.4943C49.0651 57.926 48.4519 57.1596 48.0257 56.195C47.5995 55.2305 47.3864 54.1425 47.3864 52.9312C47.3864 51.7274 47.5958 50.6432 48.0145 49.6786C48.4407 48.714 49.0501 47.9514 49.8427 47.3906C50.6353 46.8298 51.5849 46.5494 52.6916 46.5494C53.8281 46.5494 54.7852 46.826 55.5628 47.3793C56.3405 47.9327 56.9274 48.6916 57.3237 49.6562C57.7275 50.6133 57.9294 51.7049 57.9294 52.9312C57.9294 54.1351 57.7312 55.223 57.3349 56.195C56.9386 57.1596 56.3554 57.926 55.5853 58.4943C54.8151 59.0551 53.873 59.3355 52.7588 59.3355ZM52.9271 57.7989C53.787 57.7989 54.4973 57.5896 55.0581 57.1708C55.6189 56.7521 56.0376 56.1764 56.3143 55.4436C56.5909 54.7033 56.7293 53.8659 56.7293 52.9312C56.7293 51.9816 56.5909 51.1441 56.3143 50.4189C56.0376 49.6861 55.6189 49.1141 55.0581 48.7028C54.5048 48.2916 53.8057 48.0859 52.9607 48.0859C52.0934 48.0859 51.3756 48.299 50.8073 48.7253C50.239 49.1515 49.8165 49.7309 49.5399 50.4637C49.2707 51.1965 49.1361 52.019 49.1361 52.9312C49.1361 53.8509 49.2744 54.6809 49.5511 55.4211C49.8352 56.1539 50.2577 56.7334 50.8185 57.1596C51.3793 57.5858 52.0822 57.7989 52.9271 57.7989ZM56.7293 58.999V49.8805H56.5498V42.8481H58.2098V58.999H56.7293ZM66.482 59.3355C65.3006 59.3355 64.2762 59.0738 63.4089 58.5504C62.549 58.027 61.8798 57.2905 61.4012 56.3409C60.9227 55.3912 60.6834 54.2771 60.6834 52.9985C60.6834 51.675 60.9189 50.531 61.39 49.5664C61.8611 48.6019 62.5228 47.8579 63.3752 47.3345C64.2351 46.8111 65.2483 46.5494 66.4147 46.5494C67.6111 46.5494 68.6318 46.826 69.4767 47.3793C70.3216 47.9252 70.9609 48.7103 71.3946 49.7347C71.8283 50.7591 72.0264 51.9816 71.989 53.4023H70.3067V52.8191C70.2768 51.2488 69.9365 50.0637 69.286 49.2636C68.643 48.4635 67.7008 48.0635 66.4596 48.0635C65.1586 48.0635 64.1603 48.486 63.465 49.3309C62.777 50.1758 62.4331 51.3797 62.4331 52.9424C62.4331 54.4678 62.777 55.6529 63.465 56.4979C64.1603 57.3353 65.1436 57.7541 66.4147 57.7541C67.2821 57.7541 68.0373 57.5559 68.6804 57.1596C69.3309 56.7558 69.8431 56.1764 70.2169 55.4211L71.7535 56.0156C71.275 57.0699 70.5684 57.8886 69.6337 58.4719C68.7065 59.0476 67.656 59.3355 66.482 59.3355ZM61.8499 53.4023V52.0227H71.103V53.4023H61.8499ZM79.5892 59.3355C78.4751 59.3355 77.533 59.0551 76.7628 58.4943C75.9927 57.926 75.4094 57.1596 75.0131 56.195C74.6168 55.223 74.4187 54.1351 74.4187 52.9312C74.4187 51.7049 74.6168 50.6133 75.0131 49.6562C75.4169 48.6916 76.0076 47.9327 76.7853 47.3793C77.5629 46.826 78.52 46.5494 79.6565 46.5494C80.7632 46.5494 81.7128 46.8298 82.5054 47.3906C83.298 47.9514 83.9036 48.714 84.3223 49.6786C84.7485 50.6432 84.9616 51.7274 84.9616 52.9312C84.9616 54.1425 84.7485 55.2305 84.3223 56.195C83.8961 57.1596 83.283 57.926 82.4829 58.4943C81.6829 59.0551 80.7183 59.3355 79.5892 59.3355ZM74.1383 64.3827V46.8858H75.6188V56.0044H75.7983V64.3827H74.1383ZM79.421 57.7989C80.2659 57.7989 80.9688 57.5858 81.5296 57.1596C82.0904 56.7334 82.5091 56.1539 82.7858 55.4211C83.0699 54.6809 83.212 53.8509 83.212 52.9312C83.212 52.019 83.0736 51.1965 82.797 50.4637C82.5203 49.7309 82.0979 49.1515 81.5296 48.7253C80.9688 48.299 80.2547 48.0859 79.3873 48.0859C78.5424 48.0859 77.8395 48.2916 77.2788 48.7028C76.7254 49.1141 76.3104 49.6861 76.0338 50.4189C75.7571 51.1441 75.6188 51.9816 75.6188 52.9312C75.6188 53.8659 75.7571 54.7033 76.0338 55.4436C76.3104 56.1764 76.7292 56.7521 77.29 57.1708C77.8508 57.5896 78.5611 57.7989 79.421 57.7989ZM92.5503 59.3355C91.3689 59.3355 90.3445 59.0738 89.4771 58.5504C88.6172 58.027 87.948 57.2905 87.4695 56.3409C86.9909 55.3912 86.7516 54.2771 86.7516 52.9985C86.7516 51.675 86.9872 50.531 87.4582 49.5664C87.9293 48.6019 88.591 47.8579 89.4435 47.3345C90.3033 46.8111 91.3165 46.5494 92.483 46.5494C93.6793 46.5494 94.7 46.826 95.5449 47.3793C96.3898 47.9252 97.0291 48.7103 97.4628 49.7347C97.8965 50.7591 98.0947 51.9816 98.0573 53.4023H96.3749V52.8191C96.345 51.2488 96.0048 50.0637 95.3542 49.2636C94.7112 48.4635 93.7691 48.0635 92.5278 48.0635C91.2268 48.0635 90.2286 48.486 89.5332 49.3309C88.8453 50.1758 88.5013 51.3797 88.5013 52.9424C88.5013 54.4678 88.8453 55.6529 89.5332 56.4979C90.2286 57.3353 91.2118 57.7541 92.483 57.7541C93.3503 57.7541 94.1055 57.5559 94.7486 57.1596C95.3991 56.7558 95.9113 56.1764 96.2852 55.4211L97.8217 56.0156C97.3432 57.0699 96.6366 57.8886 95.7019 58.4719C94.7747 59.0476 93.7242 59.3355 92.5503 59.3355ZM87.9181 53.4023V52.0227H97.1712V53.4023H87.9181ZM108.966 58.999V52.8191C108.966 52.1461 108.903 51.5292 108.775 50.9684C108.648 50.4002 108.443 49.9067 108.159 49.4879C107.882 49.0617 107.519 48.7327 107.071 48.5009C106.629 48.2691 106.091 48.1532 105.456 48.1532C104.872 48.1532 104.356 48.2542 103.908 48.4561C103.467 48.658 103.093 48.9496 102.786 49.3309C102.487 49.7048 102.259 50.1609 102.102 50.6993C101.945 51.2376 101.866 51.8508 101.866 52.5387L100.7 52.2807C100.7 51.0395 100.917 49.9964 101.351 49.1515C101.784 48.3065 102.382 47.6672 103.145 47.2335C103.908 46.7999 104.783 46.583 105.77 46.583C106.495 46.583 107.127 46.6952 107.665 46.9195C108.211 47.1438 108.671 47.4466 109.045 47.828C109.426 48.2093 109.733 48.6467 109.964 49.1402C110.196 49.6263 110.364 50.1459 110.469 50.6993C110.574 51.2451 110.626 51.7909 110.626 52.3368V58.999H108.966ZM100.207 58.999V46.8858H101.698V49.8693H101.866V58.999H100.207ZM118.17 59.3355C117.041 59.3355 116.077 59.0551 115.277 58.4943C114.477 57.926 113.863 57.1596 113.437 56.195C113.011 55.2305 112.798 54.1425 112.798 52.9312C112.798 51.7274 113.007 50.6432 113.426 49.6786C113.852 48.714 114.462 47.9514 115.254 47.3906C116.047 46.8298 116.996 46.5494 118.103 46.5494C119.24 46.5494 120.197 46.826 120.974 47.3793C121.752 47.9327 122.339 48.6916 122.735 49.6562C123.139 50.6133 123.341 51.7049 123.341 52.9312C123.341 54.1351 123.143 55.223 122.746 56.195C122.35 57.1596 121.767 57.926 120.997 58.4943C120.227 59.0551 119.284 59.3355 118.17 59.3355ZM118.339 57.7989C119.198 57.7989 119.909 57.5896 120.47 57.1708C121.03 56.7521 121.449 56.1764 121.726 55.4436C122.002 54.7033 122.141 53.8659 122.141 52.9312C122.141 51.9816 122.002 51.1441 121.726 50.4189C121.449 49.6861 121.03 49.1141 120.47 48.7028C119.916 48.2916 119.217 48.0859 118.372 48.0859C117.505 48.0859 116.787 48.299 116.219 48.7253C115.651 49.1515 115.228 49.7309 114.951 50.4637C114.682 51.1965 114.548 52.019 114.548 52.9312C114.548 53.8509 114.686 54.6809 114.963 55.4211C115.247 56.1539 115.669 56.7334 116.23 57.1596C116.791 57.5858 117.494 57.7989 118.339 57.7989ZM122.141 58.999V49.8805H121.961V42.8481H123.621V58.999H122.141ZM131.894 59.3355C130.712 59.3355 129.688 59.0738 128.82 58.5504C127.961 58.027 127.291 57.2905 126.813 56.3409C126.334 55.3912 126.095 54.2771 126.095 52.9985C126.095 51.675 126.33 50.531 126.802 49.5664C127.273 48.6019 127.934 47.8579 128.787 47.3345C129.647 46.8111 130.66 46.5494 131.826 46.5494C133.023 46.5494 134.043 46.826 134.888 47.3793C135.733 47.9252 136.372 48.7103 136.806 49.7347C137.24 50.7591 137.438 51.9816 137.401 53.4023H135.718V52.8191C135.688 51.2488 135.348 50.0637 134.698 49.2636C134.054 48.4635 133.112 48.0635 131.871 48.0635C130.57 48.0635 129.572 48.486 128.876 49.3309C128.189 50.1758 127.845 51.3797 127.845 52.9424C127.845 54.4678 128.189 55.6529 128.876 56.4979C129.572 57.3353 130.555 57.7541 131.826 57.7541C132.694 57.7541 133.449 57.5559 134.092 57.1596C134.742 56.7558 135.255 56.1764 135.628 55.4211L137.165 56.0156C136.686 57.0699 135.98 57.8886 135.045 58.4719C134.118 59.0476 133.067 59.3355 131.894 59.3355ZM127.261 53.4023V52.0227H136.515V53.4023H127.261ZM148.309 58.999V52.8191C148.309 52.1461 148.246 51.5292 148.119 50.9684C147.992 50.4002 147.786 49.9067 147.502 49.4879C147.225 49.0617 146.863 48.7327 146.414 48.5009C145.973 48.2691 145.434 48.1532 144.799 48.1532C144.216 48.1532 143.7 48.2542 143.251 48.4561C142.81 48.658 142.436 48.9496 142.129 49.3309C141.83 49.7048 141.602 50.1609 141.445 50.6993C141.288 51.2376 141.21 51.8508 141.21 52.5387L140.043 52.2807C140.043 51.0395 140.26 49.9964 140.694 49.1515C141.128 48.3065 141.726 47.6672 142.488 47.2335C143.251 46.7999 144.126 46.583 145.113 46.583C145.838 46.583 146.47 46.6952 147.008 46.9195C147.554 47.1438 148.014 47.4466 148.388 47.828C148.769 48.2093 149.076 48.6467 149.308 49.1402C149.539 49.6263 149.708 50.1459 149.812 50.6993C149.917 51.2451 149.969 51.7909 149.969 52.3368V58.999H148.309ZM139.55 58.999V46.8858H141.042V49.8693H141.21V58.999H139.55ZM159.475 58.999C158.794 59.1411 158.122 59.1972 157.456 59.1673C156.798 59.1374 156.207 58.9953 155.684 58.7411C155.168 58.4868 154.775 58.0905 154.506 57.5522C154.289 57.1035 154.17 56.6512 154.147 56.195C154.132 55.7315 154.125 55.2043 154.125 54.6136V43.5211H155.762V54.5463C155.762 55.0548 155.766 55.481 155.774 55.8249C155.789 56.1614 155.867 56.4605 156.009 56.7222C156.278 57.2232 156.705 57.5223 157.288 57.6195C157.878 57.7167 158.608 57.6942 159.475 57.5522V58.999ZM151.534 48.299V46.8858H159.475V48.299H151.534ZM29.795 89.999V73.8481H31.4437V89.999H29.795ZM43.5546 89.999V83.8191C43.5546 83.1461 43.4911 82.5292 43.3639 81.9684C43.2368 81.4002 43.0312 80.9067 42.7471 80.4879C42.4704 80.0617 42.1078 79.7327 41.6591 79.5009C41.218 79.2691 40.6796 79.1532 40.044 79.1532C39.4608 79.1532 38.9449 79.2542 38.4962 79.4561C38.0551 79.658 37.6812 79.9496 37.3746 80.3309C37.0756 80.7048 36.8475 81.1609 36.6905 81.6993C36.5335 82.2376 36.4549 82.8508 36.4549 83.5387L35.2885 83.2807C35.2885 82.0395 35.5053 80.9964 35.939 80.1515C36.3727 79.3065 36.9709 78.6672 37.7336 78.2335C38.4962 77.7999 39.3711 77.583 40.3581 77.583C41.0834 77.583 41.7152 77.6952 42.2536 77.9195C42.7994 78.1438 43.2593 78.4466 43.6331 78.828C44.0145 79.2093 44.321 79.6467 44.5528 80.1402C44.7846 80.6263 44.9529 81.1459 45.0575 81.6993C45.1622 82.2451 45.2146 82.7909 45.2146 83.3368V89.999H43.5546ZM34.795 89.999V77.8858H36.2867V80.8693H36.4549V89.999H34.795ZM51.4001 89.999L47.0035 77.8858H48.6747L52.2526 87.8456L55.808 77.8858H57.5016L53.105 89.999H51.4001ZM64.2038 90.3355C63.0224 90.3355 61.998 90.0738 61.1306 89.5504C60.2708 89.027 59.6015 88.2905 59.123 87.3409C58.6445 86.3912 58.4052 85.2771 58.4052 83.9985C58.4052 82.675 58.6407 81.531 59.1118 80.5664C59.5828 79.6019 60.2446 78.8579 61.097 78.3345C61.9569 77.8111 62.9701 77.5494 64.1365 77.5494C65.3329 77.5494 66.3535 77.826 67.1985 78.3793C68.0434 78.9252 68.6827 79.7103 69.1164 80.7347C69.5501 81.7591 69.7482 82.9816 69.7108 84.4023H68.0284V83.8191C67.9985 82.2488 67.6583 81.0637 67.0078 80.2636C66.3647 79.4635 65.4226 79.0635 64.1814 79.0635C62.8803 79.0635 61.8821 79.486 61.1867 80.3309C60.4988 81.1758 60.1549 82.3797 60.1549 83.9424C60.1549 85.4678 60.4988 86.6529 61.1867 87.4979C61.8821 88.3353 62.8654 88.7541 64.1365 88.7541C65.0039 88.7541 65.7591 88.5559 66.4021 88.1596C67.0526 87.7558 67.5648 87.1764 67.9387 86.4211L69.4753 87.0156C68.9967 88.0699 68.2901 88.8886 67.3555 89.4719C66.4283 90.0476 65.3777 90.3355 64.2038 90.3355ZM59.5716 84.4023V83.0227H68.8248V84.4023H59.5716ZM76.7199 90.3243C75.2992 90.3243 74.129 90.0177 73.2093 89.4046C72.2971 88.7914 71.7363 87.939 71.5269 86.8474L73.2093 86.567C73.3888 87.2549 73.7963 87.8044 74.4318 88.2157C75.0749 88.6195 75.8675 88.8214 76.8096 88.8214C77.7293 88.8214 78.4546 88.6307 78.9855 88.2493C79.5164 87.8605 79.7818 87.3334 79.7818 86.6679C79.7818 86.294 79.6958 85.9912 79.5239 85.7594C79.3594 85.5201 79.0191 85.2996 78.5032 85.0977C77.9873 84.8958 77.2171 84.6565 76.1927 84.3799C75.0936 84.0808 74.2337 83.7817 73.6131 83.4826C72.9925 83.1835 72.5513 82.8395 72.2896 82.4507C72.0279 82.0544 71.897 81.5721 71.897 81.0039C71.897 80.316 72.0914 79.714 72.4803 79.1981C72.8691 78.6747 73.4074 78.2709 74.0954 77.9868C74.7833 77.6952 75.5833 77.5494 76.4956 77.5494C77.4078 77.5494 78.2228 77.6989 78.9406 77.998C79.6659 78.2896 80.2492 78.7009 80.6903 79.2318C81.1315 79.7626 81.3932 80.3795 81.4754 81.0824L79.793 81.3852C79.6809 80.6749 79.3257 80.1141 78.7275 79.7028C78.1368 79.2841 77.3854 79.0673 76.4731 79.0523C75.6132 79.0299 74.9141 79.1944 74.3758 79.5458C73.8374 79.8898 73.5682 80.3496 73.5682 80.9254C73.5682 81.2469 73.6654 81.5235 73.8598 81.7553C74.0542 81.9796 74.4057 82.1928 74.9141 82.3946C75.4301 82.5965 76.1628 82.8171 77.1124 83.0564C78.2266 83.3405 79.1014 83.6396 79.737 83.9536C80.3725 84.2677 80.8249 84.6378 81.0941 85.064C81.3633 85.4902 81.4979 86.0174 81.4979 86.6455C81.4979 87.7895 81.0717 88.6905 80.2192 89.3485C79.3743 89.999 78.2079 90.3243 76.7199 90.3243ZM90.5803 89.999C89.8999 90.1411 89.2269 90.1972 88.5614 90.1673C87.9034 90.1374 87.3127 89.9953 86.7893 89.7411C86.2734 89.4868 85.8808 89.0905 85.6116 88.5522C85.3948 88.1035 85.2752 87.6512 85.2527 87.195C85.2378 86.7315 85.2303 86.2043 85.2303 85.6136V74.5211H86.8678V85.5463C86.8678 86.0548 86.8716 86.481 86.879 86.8249C86.894 87.1614 86.9725 87.4605 87.1146 87.7222C87.3838 88.2232 87.81 88.5223 88.3932 88.6195C88.9839 88.7167 89.7129 88.6942 90.5803 88.5522V89.999ZM82.6394 79.299V77.8858H90.5803V79.299H82.6394ZM107.413 89.999L107.424 82.0469C107.424 81.1123 107.162 80.3795 106.639 79.8486C106.123 79.3103 105.465 79.0411 104.665 79.0411C104.209 79.0411 103.764 79.1458 103.33 79.3551C102.897 79.5645 102.538 79.901 102.254 80.3646C101.977 80.8281 101.839 81.4338 101.839 82.1815L100.863 81.9011C100.84 81.0338 101.009 80.2748 101.368 79.6243C101.734 78.9738 102.235 78.4691 102.87 78.1102C103.514 77.7438 104.239 77.5606 105.046 77.5606C106.265 77.5606 107.241 77.9382 107.974 78.6934C108.706 79.4411 109.073 80.4543 109.073 81.7329L109.062 89.999H107.413ZM92.9556 89.999V77.8858H94.4361V80.8693H94.6156V89.999H92.9556ZM100.201 89.999L100.212 82.1591C100.212 81.1945 99.9543 80.4356 99.4384 79.8823C98.93 79.3215 98.257 79.0411 97.4195 79.0411C96.5821 79.0411 95.9054 79.329 95.3895 79.9047C94.8735 80.473 94.6156 81.2319 94.6156 82.1815L93.6286 81.6432C93.6286 80.8655 93.8118 80.1701 94.1781 79.557C94.5445 78.9364 95.0455 78.4504 95.6811 78.0989C96.3166 77.74 97.0382 77.5606 97.8457 77.5606C98.6159 77.5606 99.3001 77.7251 99.8983 78.0541C100.504 78.3831 100.979 78.8616 101.323 79.4897C101.667 80.1178 101.839 80.8805 101.839 81.7778L101.827 89.999H100.201ZM117.041 90.3355C115.86 90.3355 114.835 90.0738 113.968 89.5504C113.108 89.027 112.439 88.2905 111.96 87.3409C111.482 86.3912 111.243 85.2771 111.243 83.9985C111.243 82.675 111.478 81.531 111.949 80.5664C112.42 79.6019 113.082 78.8579 113.934 78.3345C114.794 77.8111 115.808 77.5494 116.974 77.5494C118.17 77.5494 119.191 77.826 120.036 78.3793C120.881 78.9252 121.52 79.7103 121.954 80.7347C122.388 81.7591 122.586 82.9816 122.548 84.4023H120.866V83.8191C120.836 82.2488 120.496 81.0637 119.845 80.2636C119.202 79.4635 118.26 79.0635 117.019 79.0635C115.718 79.0635 114.72 79.486 114.024 80.3309C113.336 81.1758 112.992 82.3797 112.992 83.9424C112.992 85.4678 113.336 86.6529 114.024 87.4979C114.72 88.3353 115.703 88.7541 116.974 88.7541C117.841 88.7541 118.597 88.5559 119.24 88.1596C119.89 87.7558 120.402 87.1764 120.776 86.4211L122.313 87.0156C121.834 88.0699 121.128 88.8886 120.193 89.4719C119.266 90.0476 118.215 90.3355 117.041 90.3355ZM112.409 84.4023V83.0227H121.662V84.4023H112.409ZM133.457 89.999V83.8191C133.457 83.1461 133.394 82.5292 133.266 81.9684C133.139 81.4002 132.934 80.9067 132.65 80.4879C132.373 80.0617 132.01 79.7327 131.562 79.5009C131.12 79.2691 130.582 79.1532 129.947 79.1532C129.363 79.1532 128.847 79.2542 128.399 79.4561C127.958 79.658 127.584 79.9496 127.277 80.3309C126.978 80.7048 126.75 81.1609 126.593 81.6993C126.436 82.2376 126.357 82.8508 126.357 83.5387L125.191 83.2807C125.191 82.0395 125.408 80.9964 125.842 80.1515C126.275 79.3065 126.873 78.6672 127.636 78.2335C128.399 77.7999 129.274 77.583 130.261 77.583C130.986 77.583 131.618 77.6952 132.156 77.9195C132.702 78.1438 133.162 78.4466 133.536 78.828C133.917 79.2093 134.224 79.6467 134.455 80.1402C134.687 80.6263 134.855 81.1459 134.96 81.6993C135.065 82.2451 135.117 82.7909 135.117 83.3368V89.999H133.457ZM124.698 89.999V77.8858H126.189V80.8693H126.357V89.999H124.698ZM144.623 89.999C143.942 90.1411 143.269 90.1972 142.604 90.1673C141.946 90.1374 141.355 89.9953 140.832 89.7411C140.316 89.4868 139.923 89.0905 139.654 88.5522C139.437 88.1035 139.317 87.6512 139.295 87.195C139.28 86.7315 139.273 86.2043 139.273 85.6136V74.5211H140.91V85.5463C140.91 86.0548 140.914 86.481 140.921 86.8249C140.936 87.1614 141.015 87.4605 141.157 87.7222C141.426 88.2232 141.852 88.5223 142.435 88.6195C143.026 88.7167 143.755 88.6942 144.623 88.5522V89.999ZM136.682 79.299V77.8858H144.623V79.299H136.682ZM158.039 90.3355C156.431 90.3355 155.074 89.9803 153.967 89.27C152.861 88.5522 152.023 87.5614 151.455 86.2978C150.887 85.0341 150.603 83.576 150.603 81.9236C150.603 80.2711 150.887 78.813 151.455 77.5494C152.023 76.2857 152.861 75.2987 153.967 74.5884C155.074 73.8705 156.431 73.5116 158.039 73.5116C159.916 73.5116 161.448 73.9939 162.637 74.9585C163.826 75.9156 164.641 77.2017 165.082 78.8168L163.4 79.2542C163.056 77.9756 162.439 76.9624 161.549 76.2147C160.66 75.4669 159.489 75.0931 158.039 75.0931C156.775 75.0931 155.725 75.381 154.887 75.9567C154.05 76.5325 153.418 77.3363 152.992 78.3681C152.573 79.3925 152.356 80.5777 152.341 81.9236C152.334 83.2695 152.539 84.4546 152.958 85.479C153.384 86.5034 154.02 87.3072 154.865 87.8904C155.717 88.4662 156.775 88.7541 158.039 88.7541C159.489 88.7541 160.66 88.3802 161.549 87.6325C162.439 86.8773 163.056 85.8641 163.4 84.593L165.082 85.0304C164.641 86.6455 163.826 87.9353 162.637 88.8999C161.448 89.857 159.916 90.3355 158.039 90.3355ZM172.615 90.3355C171.412 90.3355 170.383 90.0626 169.531 89.5167C168.679 88.9709 168.024 88.2157 167.568 87.2511C167.112 86.2866 166.884 85.1799 166.884 83.9312C166.884 82.6601 167.116 81.546 167.579 80.5889C168.043 79.6318 168.701 78.8878 169.553 78.3569C170.413 77.8185 171.434 77.5494 172.615 77.5494C173.827 77.5494 174.859 77.8223 175.711 78.3681C176.571 78.9065 177.225 79.658 177.674 80.6225C178.13 81.5796 178.358 82.6825 178.358 83.9312C178.358 85.2024 178.13 86.3202 177.674 87.2848C177.218 88.2419 176.56 88.9896 175.7 89.528C174.84 90.0663 173.812 90.3355 172.615 90.3355ZM172.615 88.7541C173.961 88.7541 174.963 88.3092 175.621 87.4194C176.279 86.5221 176.608 85.3594 176.608 83.9312C176.608 82.4657 176.275 81.2992 175.61 80.4319C174.952 79.5645 173.954 79.1308 172.615 79.1308C171.711 79.1308 170.963 79.3364 170.372 79.7477C169.789 80.1515 169.352 80.716 169.06 81.4413C168.776 82.1591 168.634 82.9891 168.634 83.9312C168.634 85.3893 168.97 86.5595 169.643 87.4418C170.316 88.3166 171.307 88.7541 172.615 88.7541ZM195.278 89.999L195.289 82.0469C195.289 81.1123 195.028 80.3795 194.504 79.8486C193.988 79.3103 193.33 79.0411 192.53 79.0411C192.074 79.0411 191.629 79.1458 191.196 79.3551C190.762 79.5645 190.403 79.901 190.119 80.3646C189.842 80.8281 189.704 81.4338 189.704 82.1815L188.728 81.9011C188.706 81.0338 188.874 80.2748 189.233 79.6243C189.599 78.9738 190.1 78.4691 190.736 78.1102C191.379 77.7438 192.104 77.5606 192.912 77.5606C194.13 77.5606 195.106 77.9382 195.839 78.6934C196.572 79.4411 196.938 80.4543 196.938 81.7329L196.927 89.999H195.278ZM180.821 89.999V77.8858H182.301V80.8693H182.481V89.999H180.821ZM188.066 89.999L188.078 82.1591C188.078 81.1945 187.82 80.4356 187.304 79.8823C186.795 79.3215 186.122 79.0411 185.285 79.0411C184.447 79.0411 183.771 79.329 183.255 79.9047C182.739 80.473 182.481 81.2319 182.481 82.1815L181.494 81.6432C181.494 80.8655 181.677 80.1701 182.043 79.557C182.41 78.9364 182.911 78.4504 183.546 78.0989C184.182 77.74 184.903 77.5606 185.711 77.5606C186.481 77.5606 187.165 77.7251 187.764 78.0541C188.369 78.3831 188.844 78.8616 189.188 79.4897C189.532 80.1178 189.704 80.8805 189.704 81.7778L189.693 89.999H188.066ZM214.293 89.999L214.304 82.0469C214.304 81.1123 214.042 80.3795 213.519 79.8486C213.003 79.3103 212.345 79.0411 211.545 79.0411C211.089 79.0411 210.644 79.1458 210.21 79.3551C209.776 79.5645 209.417 79.901 209.133 80.3646C208.857 80.8281 208.718 81.4338 208.718 82.1815L207.743 81.9011C207.72 81.0338 207.888 80.2748 208.247 79.6243C208.614 78.9738 209.115 78.4691 209.75 78.1102C210.393 77.7438 211.119 77.5606 211.926 77.5606C213.145 77.5606 214.121 77.9382 214.853 78.6934C215.586 79.4411 215.953 80.4543 215.953 81.7329L215.941 89.999H214.293ZM199.835 89.999V77.8858H201.316V80.8693H201.495V89.999H199.835ZM207.081 89.999L207.092 82.1591C207.092 81.1945 206.834 80.4356 206.318 79.8823C205.81 79.3215 205.137 79.0411 204.299 79.0411C203.462 79.0411 202.785 79.329 202.269 79.9047C201.753 80.473 201.495 81.2319 201.495 82.1815L200.508 81.6432C200.508 80.8655 200.691 80.1701 201.058 79.557C201.424 78.9364 201.925 78.4504 202.561 78.0989C203.196 77.74 203.918 77.5606 204.725 77.5606C205.496 77.5606 206.18 77.7251 206.778 78.0541C207.384 78.3831 207.858 78.8616 208.202 79.4897C208.546 80.1178 208.718 80.8805 208.718 81.7778L208.707 89.999H207.081ZM219.085 75.5866V73.736H220.734V75.5866H219.085ZM219.085 89.999V77.8858H220.734V89.999H219.085ZM230.692 89.999C230.011 90.1411 229.338 90.1972 228.673 90.1673C228.015 90.1374 227.424 89.9953 226.901 89.7411C226.385 89.4868 225.992 89.0905 225.723 88.5522C225.506 88.1035 225.386 87.6512 225.364 87.195C225.349 86.7315 225.342 86.2043 225.342 85.6136V74.5211H226.979V85.5463C226.979 86.0548 226.983 86.481 226.99 86.8249C227.005 87.1614 227.084 87.4605 227.226 87.7222C227.495 88.2232 227.921 88.5223 228.504 88.6195C229.095 88.7167 229.824 88.6942 230.692 88.5522V89.999ZM222.751 79.299V77.8858H230.692V79.299H222.751ZM238.33 89.999C237.649 90.1411 236.976 90.1972 236.311 90.1673C235.653 90.1374 235.062 89.9953 234.539 89.7411C234.023 89.4868 233.63 89.0905 233.361 88.5522C233.144 88.1035 233.024 87.6512 233.002 87.195C232.987 86.7315 232.98 86.2043 232.98 85.6136V74.5211H234.617V85.5463C234.617 86.0548 234.621 86.481 234.628 86.8249C234.643 87.1614 234.722 87.4605 234.864 87.7222C235.133 88.2232 235.559 88.5223 236.142 88.6195C236.733 88.7167 237.462 88.6942 238.33 88.5522V89.999ZM230.389 79.299V77.8858H238.33V79.299H230.389ZM245.849 90.3355C244.668 90.3355 243.643 90.0738 242.776 89.5504C241.916 89.027 241.247 88.2905 240.768 87.3409C240.29 86.3912 240.05 85.2771 240.05 83.9985C240.05 82.675 240.286 81.531 240.757 80.5664C241.228 79.6019 241.89 78.8579 242.742 78.3345C243.602 77.8111 244.615 77.5494 245.782 77.5494C246.978 77.5494 247.999 77.826 248.844 78.3793C249.689 78.9252 250.328 79.7103 250.762 80.7347C251.195 81.7591 251.393 82.9816 251.356 84.4023H249.674V83.8191C249.644 82.2488 249.303 81.0637 248.653 80.2636C248.01 79.4635 247.068 79.0635 245.827 79.0635C244.525 79.0635 243.527 79.486 242.832 80.3309C242.144 81.1758 241.8 82.3797 241.8 83.9424C241.8 85.4678 242.144 86.6529 242.832 87.4979C243.527 88.3353 244.511 88.7541 245.782 88.7541C246.649 88.7541 247.404 88.5559 248.047 88.1596C248.698 87.7558 249.21 87.1764 249.584 86.4211L251.12 87.0156C250.642 88.0699 249.935 88.8886 249.001 89.4719C248.073 90.0476 247.023 90.3355 245.849 90.3355ZM241.217 84.4023V83.0227H250.47V84.4023H241.217ZM258.971 90.3355C257.789 90.3355 256.765 90.0738 255.898 89.5504C255.038 89.027 254.368 88.2905 253.89 87.3409C253.411 86.3912 253.172 85.2771 253.172 83.9985C253.172 82.675 253.408 81.531 253.879 80.5664C254.35 79.6019 255.011 78.8579 255.864 78.3345C256.724 77.8111 257.737 77.5494 258.903 77.5494C260.1 77.5494 261.12 77.826 261.965 78.3793C262.81 78.9252 263.45 79.7103 263.883 80.7347C264.317 81.7591 264.515 82.9816 264.478 84.4023H262.795V83.8191C262.765 82.2488 262.425 81.0637 261.775 80.2636C261.132 79.4635 260.189 79.0635 258.948 79.0635C257.647 79.0635 256.649 79.486 255.954 80.3309C255.266 81.1758 254.922 82.3797 254.922 83.9424C254.922 85.4678 255.266 86.6529 255.954 87.4979C256.649 88.3353 257.632 88.7541 258.903 88.7541C259.771 88.7541 260.526 88.5559 261.169 88.1596C261.82 87.7558 262.332 87.1764 262.706 86.4211L264.242 87.0156C263.764 88.0699 263.057 88.8886 262.122 89.4719C261.195 90.0476 260.145 90.3355 258.971 90.3355ZM254.339 84.4023V83.0227H263.592V84.4023H254.339Z" fill="black"/>
<path d="M50.9488 420.407C50.6976 419.418 49.8341 418.46 48.4996 418.46C46.6627 418.46 45.2811 419.512 45.2811 421.506C45.2811 422.966 46.333 423.782 47.432 424.316C48.4839 424.834 49.1119 425.242 49.1119 426.326C49.1119 427.707 48.0914 428.382 46.9139 428.382C45.6108 428.382 44.9985 427.315 44.9043 426.012L43.6483 426.687C43.6483 428.351 45.0613 429.701 46.6156 429.701C47.8245 429.701 48.6566 429.481 49.5201 428.681C50.1952 428.068 50.5563 427.299 50.5563 426.074C50.5563 424.489 49.7242 423.923 48.4682 423.264C47.4163 422.715 46.7255 422.291 46.7255 421.302C46.7255 420.36 47.275 419.779 48.2484 419.779C48.9078 419.779 49.4102 420.108 49.7556 421.066L50.9488 420.407Z" fill="#FF0000"/>
<path d="M26 153.888C26 150.636 28.6359 148 31.8875 148H59.1125C62.3641 148 65 150.636 65 153.888V407H26V153.888Z" fill="#FF0000"/>
<path d="M90.0484 418.585L87.8975 429.575H89.2948L90.8648 421.568L92.1993 428.57H93.2355L97.2233 421.568L95.6533 429.575H97.0506L99.2015 418.585H97.5059L93.1256 426.325L91.6812 418.585H90.0484Z" fill="#FF0000"/>
<path d="M72.9998 333.797C72.9998 330.546 75.6357 327.91 78.8873 327.91H107.112C110.364 327.91 113 330.546 113 333.797V406.946H72.9998V333.797Z" fill="#FF0000"/>
<path d="M137.092 419.904H140.185L138.301 429.575H139.698L141.582 419.904H144.675L144.942 418.585H137.359L137.092 419.904Z" fill="#FF0000"/>
<path d="M120 228.763C120 225.512 122.636 222.876 125.887 222.876H154.112C157.364 222.876 160 225.512 160 228.763V406.946H120V228.763Z" fill="#FF0000"/>
<path d="M193.302 418.585L189.393 427.534L188.608 419.747H187.305L183.647 427.534L183.207 418.585H181.747L182.563 429.575H183.961L187.509 422.039L188.372 429.575H189.77L194.778 418.585H193.302Z" fill="#FF0000"/>
<path d="M168 276.601C168 273.349 170.636 270.713 173.888 270.713H201.113C204.365 270.713 207 273.349 207 276.601V406.946H168V276.601Z" fill="#FF0000"/>
<path d="M231.291 419.904H234.384L232.5 429.575H233.898L235.782 419.904H238.875L239.141 418.585H231.558L231.291 419.904Z" fill="#FF0000"/>
<path d="M215 153.887C215 150.636 217.636 148 220.888 148H248.113C251.364 148 254 150.636 254 153.887V406.946H215V153.887Z" fill="#FF0000"/>
<path d="M282.251 418.585L280.1 429.575H281.498L282.487 424.504H286.412L286.679 423.186H282.754L283.382 419.904H288.249L288.516 418.585H282.251Z" fill="#FF0000"/>
<path d="M262 360.836C262 357.584 264.636 354.948 267.887 354.948H295.112C298.364 354.948 301 357.584 301 360.836V406.946H262V360.836Z" fill="#FF0000"/>
<path d="M333.549 420.406C333.298 419.417 332.434 418.459 331.1 418.459C329.263 418.459 327.881 419.511 327.881 421.505C327.881 422.965 328.933 423.782 330.032 424.315C331.084 424.834 331.712 425.242 331.712 426.325C331.712 427.707 330.692 428.382 329.514 428.382C328.211 428.382 327.599 427.314 327.505 426.011L326.249 426.686C326.249 428.35 327.662 429.701 329.216 429.701C330.425 429.701 331.257 429.481 332.12 428.68C332.796 428.068 333.157 427.298 333.157 426.074C333.157 424.488 332.325 423.923 331.069 423.264C330.017 422.714 329.326 422.29 329.326 421.301C329.326 420.359 329.875 419.778 330.849 419.778C331.508 419.778 332.011 420.108 332.356 421.066L333.549 420.406Z" fill="#FF0000"/>
<path d="M309 276.601C309 273.349 311.636 270.713 314.887 270.713H342.112C345.364 270.713 348 273.349 348 276.601V406.946H309V276.601Z" fill="#FF0000"/>
<path d="M382.612 420.406C382.361 419.417 381.497 418.46 380.163 418.46C378.326 418.46 376.944 419.511 376.944 421.505C376.944 422.965 377.996 423.782 379.095 424.316C380.147 424.834 380.775 425.242 380.775 426.325C380.775 427.707 379.755 428.382 378.577 428.382C377.274 428.382 376.662 427.314 376.568 426.011L375.312 426.686C375.312 428.351 376.725 429.701 378.279 429.701C379.488 429.701 380.32 429.481 381.183 428.68C381.859 428.068 382.22 427.299 382.22 426.074C382.22 424.488 381.388 423.923 380.132 423.264C379.08 422.714 378.389 422.29 378.389 421.301C378.389 420.359 378.938 419.778 379.912 419.778C380.571 419.778 381.074 420.108 381.419 421.066L382.612 420.406Z" fill="#FF0000"/>
<path d="M356 211.084C356 207.833 358.635 205.197 361.887 205.197H389.112C392.364 205.197 395 207.833 395 211.084V406.946H356V211.084Z" fill="#FF0000"/>
<g filter="url(#filter0_dddddd_1_370)">
<rect x="282" y="332" width="286" height="85" rx="10" fill="white"/>
</g>
<path d="M370.302 389.944V397H371.478V389.944H370.302ZM370.008 387.984C370.008 388.474 370.386 388.852 370.89 388.852C371.394 388.852 371.772 388.474 371.772 387.984C371.772 387.48 371.394 387.088 370.89 387.088C370.386 387.088 370.008 387.48 370.008 387.984ZM379.155 392.03C379.155 390.63 378.371 389.832 377.083 389.832C376.103 389.832 375.263 390.336 374.745 391.246V389.944H373.569V397H374.745V394.046C374.745 392.086 375.711 390.896 376.761 390.896C377.545 390.896 377.979 391.372 377.979 392.338V397H379.155V392.03ZM385.275 389.944L383.553 395.502L381.831 389.944H380.627L382.951 397H384.155L386.479 389.944H385.275ZM393.79 393.178C393.79 391.428 392.684 389.832 390.598 389.832C388.456 389.832 387.406 391.582 387.406 393.472C387.406 395.362 388.456 397.112 390.598 397.112C392.054 397.112 392.936 396.524 393.594 395.152L392.558 394.704C392.166 395.572 391.634 396.048 390.598 396.048C389.324 396.048 388.68 395.026 388.61 393.724H393.79V393.178ZM390.598 390.896C391.732 390.896 392.348 391.652 392.558 392.66H388.68C388.89 391.638 389.506 390.896 390.598 390.896ZM397.706 389.832C396.432 389.832 395.634 390.686 395.634 391.778C395.634 394.074 398.882 393.626 398.882 394.942C398.882 395.684 398.462 396.048 397.748 396.048C396.964 396.048 396.418 395.418 396.11 394.662L395.116 395.208C395.48 396.16 396.306 397.112 397.748 397.112C399.176 397.112 400.086 396.286 400.086 394.872C400.086 392.8 396.81 393.066 396.81 391.792C396.81 391.218 397.188 390.896 397.664 390.896C398.154 390.896 398.49 391.092 398.952 391.596L399.75 390.91C399.26 390.21 398.574 389.832 397.706 389.832ZM401.082 391.008H402.3V394.788C402.3 396.384 403.154 397.112 404.344 397.112C404.75 397.112 405.156 397.042 405.492 396.846L405.212 395.824C404.96 395.992 404.722 396.048 404.414 396.048C403.826 396.048 403.476 395.642 403.476 394.886V391.008H405.324V389.944H403.476V387.088L402.3 387.83V389.944H401.082V391.008ZM416.832 392.03C416.832 390.672 416.132 389.832 414.844 389.832C413.85 389.832 413.038 390.378 412.548 391.302C412.324 390.378 411.638 389.832 410.658 389.832C409.678 389.832 408.908 390.364 408.46 391.246V389.944H407.284V397H408.46V394.102C408.46 392.044 409.314 390.896 410.336 390.896C411.078 390.896 411.47 391.372 411.47 392.282V397H412.646V394.102C412.646 392.044 413.5 390.896 414.522 390.896C415.264 390.896 415.656 391.372 415.656 392.282V397H416.832V392.03ZM425.058 393.178C425.058 391.428 423.952 389.832 421.866 389.832C419.724 389.832 418.674 391.582 418.674 393.472C418.674 395.362 419.724 397.112 421.866 397.112C423.322 397.112 424.204 396.524 424.862 395.152L423.826 394.704C423.434 395.572 422.902 396.048 421.866 396.048C420.592 396.048 419.948 395.026 419.878 393.724H425.058V393.178ZM421.866 390.896C423 390.896 423.616 391.652 423.826 392.66H419.948C420.158 391.638 420.774 390.896 421.866 390.896ZM432.653 392.03C432.653 390.63 431.869 389.832 430.581 389.832C429.601 389.832 428.761 390.336 428.243 391.246V389.944H427.067V397H428.243V394.046C428.243 392.086 429.209 390.896 430.259 390.896C431.043 390.896 431.477 391.372 431.477 392.338V397H432.653V392.03ZM434.168 391.008H435.386V394.788C435.386 396.384 436.24 397.112 437.43 397.112C437.836 397.112 438.242 397.042 438.578 396.846L438.298 395.824C438.046 395.992 437.808 396.048 437.5 396.048C436.912 396.048 436.562 395.642 436.562 394.886V391.008H438.41V389.944H436.562V387.088L435.386 387.83V389.944H434.168V391.008ZM444.843 394.97C444.843 394.172 445.515 393.724 446.719 393.724H447.979V393.892C447.979 395.488 446.915 396.048 446.005 396.048C445.263 396.048 444.843 395.642 444.843 394.97ZM449.155 392.492C449.155 390.616 447.993 389.832 446.439 389.832C445.109 389.832 444.129 390.574 443.933 391.764L444.969 392.002C445.123 391.302 445.711 390.896 446.439 390.896C447.293 390.896 447.979 391.26 447.979 392.352V392.66H446.831C444.899 392.66 443.639 393.458 443.639 394.97C443.639 396.482 444.647 397.112 445.823 397.112C446.873 397.112 447.587 396.65 448.035 396.006L448.231 397H449.155V392.492ZM450.967 393.472C450.967 395.586 452.031 397.112 454.103 397.112C454.957 397.112 455.825 396.65 456.161 396.132V397H457.337V387.088H456.161V390.784C455.923 390.378 454.999 389.832 454.103 389.832C452.031 389.832 450.967 391.358 450.967 393.472ZM452.171 393.472C452.171 391.96 452.969 390.896 454.215 390.896C455.503 390.896 456.259 391.96 456.259 393.472C456.259 394.984 455.503 396.048 454.215 396.048C452.969 396.048 452.171 394.984 452.171 393.472ZM463.533 389.944L461.811 395.502L460.089 389.944H458.885L461.209 397H462.413L464.737 389.944H463.533ZM466.183 389.944V397H467.359V389.944H466.183ZM465.889 387.984C465.889 388.474 466.267 388.852 466.771 388.852C467.275 388.852 467.653 388.474 467.653 387.984C467.653 387.48 467.275 387.088 466.771 387.088C466.267 387.088 465.889 387.48 465.889 387.984ZM471.658 389.832C470.384 389.832 469.586 390.686 469.586 391.778C469.586 394.074 472.834 393.626 472.834 394.942C472.834 395.684 472.414 396.048 471.7 396.048C470.916 396.048 470.37 395.418 470.062 394.662L469.068 395.208C469.432 396.16 470.258 397.112 471.7 397.112C473.128 397.112 474.038 396.286 474.038 394.872C474.038 392.8 470.762 393.066 470.762 391.792C470.762 391.218 471.14 390.896 471.616 390.896C472.106 390.896 472.442 391.092 472.904 391.596L473.702 390.91C473.212 390.21 472.526 389.832 471.658 389.832ZM475.522 393.472C475.522 395.39 476.796 397.112 478.91 397.112C481.024 397.112 482.298 395.39 482.298 393.472C482.298 391.554 481.024 389.832 478.91 389.832C476.796 389.832 475.522 391.554 475.522 393.472ZM476.726 393.472C476.726 392.17 477.468 390.896 478.91 390.896C480.352 390.896 481.094 392.17 481.094 393.472C481.094 394.774 480.352 396.048 478.91 396.048C477.468 396.048 476.726 394.774 476.726 393.472ZM488.279 390.042C488.069 389.93 487.705 389.832 487.313 389.832C486.529 389.832 485.661 390.364 485.241 391.148V389.944H484.065V397H485.241V394.326C485.241 392.03 486.249 390.896 487.215 390.896C487.509 390.896 487.789 390.966 488.041 391.092L488.279 390.042ZM491.413 389.832C490.139 389.832 489.341 390.686 489.341 391.778C489.341 394.074 492.589 393.626 492.589 394.942C492.589 395.684 492.169 396.048 491.455 396.048C490.671 396.048 490.125 395.418 489.817 394.662L488.823 395.208C489.187 396.16 490.013 397.112 491.455 397.112C492.883 397.112 493.793 396.286 493.793 394.872C493.793 392.8 490.517 393.066 490.517 391.792C490.517 391.218 490.895 390.896 491.371 390.896C491.861 390.896 492.197 391.092 492.659 391.596L493.457 390.91C492.967 390.21 492.281 389.832 491.413 389.832Z" fill="#6C6C6C"/>
<rect opacity="0.1" x="369" y="348" width="175" height="26" rx="13" fill="#3734A9"/>
<path d="M387.035 366H389.135L385.58 355.5H383.63L380.075 366H382.175L382.94 363.525H386.27L387.035 366ZM384.605 358.08L385.715 361.725H383.495L384.605 358.08ZM397.181 362.22C397.181 359.895 396.011 358.32 393.731 358.32C392.801 358.32 392.111 358.83 391.901 359.22V358.44H390.041V369.06H391.901V365.31C392.231 365.73 392.966 366.12 393.731 366.12C396.011 366.12 397.181 364.545 397.181 362.22ZM395.231 362.22C395.231 363.72 394.451 364.53 393.476 364.53C392.501 364.53 391.736 363.72 391.736 362.22C391.736 360.72 392.501 359.91 393.476 359.91C394.451 359.91 395.231 360.72 395.231 362.22ZM405.831 362.22C405.831 359.895 404.661 358.32 402.381 358.32C401.451 358.32 400.761 358.83 400.551 359.22V358.44H398.691V369.06H400.551V365.31C400.881 365.73 401.616 366.12 402.381 366.12C404.661 366.12 405.831 364.545 405.831 362.22ZM403.881 362.22C403.881 363.72 403.101 364.53 402.126 364.53C401.151 364.53 400.386 363.72 400.386 362.22C400.386 360.72 401.151 359.91 402.126 359.91C403.101 359.91 403.881 360.72 403.881 362.22ZM409.025 366V363.315C409.025 360.87 409.97 359.985 411.05 359.985C411.365 359.985 411.605 360.06 411.83 360.195L412.175 358.47C411.875 358.38 411.59 358.32 411.26 358.32C410.405 358.32 409.565 358.785 409.025 359.67V358.44H407.165V366H409.025ZM414.511 360.78C414.751 360.075 415.291 359.91 415.816 359.91C416.506 359.91 417.136 360.18 417.136 361.02V361.35H415.876C413.971 361.35 412.651 362.325 412.651 363.825C412.651 365.325 413.656 366.12 414.946 366.12C416.026 366.12 416.746 365.685 417.271 365.04L417.466 366H418.996V361.485C418.996 359.07 417.616 358.32 415.816 358.32C414.271 358.32 413.176 359.175 412.936 360.42L414.511 360.78ZM414.601 363.795C414.601 363.12 415.096 362.82 415.891 362.82H417.136V362.97C417.136 363.945 416.236 364.53 415.381 364.53C414.856 364.53 414.601 364.155 414.601 363.795ZM420.163 356.265C420.163 356.94 420.673 357.465 421.363 357.465C422.053 357.465 422.563 356.94 422.563 356.265C422.563 355.59 422.053 355.065 421.363 355.065C420.673 355.065 420.163 355.59 420.163 356.265ZM420.433 358.44V366H422.293V358.44H420.433ZM426.445 358.32C424.975 358.32 424.03 359.355 424.03 360.525C424.03 361.695 424.735 362.22 425.56 362.565C426.475 362.955 427.45 363.09 427.45 363.72C427.45 364.275 427.09 364.53 426.52 364.53C425.785 364.53 425.275 364.02 425.005 363.285L423.52 364.08C423.895 365.01 424.945 366.12 426.52 366.12C428.155 366.12 429.205 364.965 429.205 363.6C429.205 361.98 427.51 361.65 426.475 361.275C426.025 361.11 425.755 360.87 425.755 360.54C425.755 360.12 426.085 359.91 426.445 359.91C426.865 359.91 427.36 360.12 427.705 360.57L428.815 359.55C428.35 358.815 427.465 358.32 426.445 358.32ZM430.081 356.265C430.081 356.94 430.591 357.465 431.281 357.465C431.971 357.465 432.481 356.94 432.481 356.265C432.481 355.59 431.971 355.065 431.281 355.065C430.591 355.065 430.081 355.59 430.081 356.265ZM430.351 358.44V366H432.211V358.44H430.351ZM433.79 358.44V366H435.65V362.985C435.65 360.99 436.475 359.91 437.375 359.91C438.005 359.91 438.455 360.255 438.455 361.155V366H440.315V360.6C440.315 359.085 439.34 358.32 437.99 358.32C437.015 358.32 436.205 358.86 435.65 359.655V358.44H433.79ZM442.265 360.87C442.265 361.5 442.46 362.025 442.79 362.43C442.235 362.76 441.86 363.3 441.86 364.02C441.86 364.5 442.01 364.905 442.25 365.19C441.86 365.55 441.635 366.075 441.635 366.69C441.635 368.34 443.12 369.18 445.055 369.18C446.735 369.18 448.49 368.43 448.49 366.57C448.49 365.115 447.425 364.35 445.835 364.35H444.29C443.84 364.35 443.585 364.155 443.585 363.795C443.585 363.555 443.72 363.36 443.945 363.225C444.275 363.33 444.65 363.39 445.04 363.39C446.57 363.39 447.815 362.46 447.815 360.87C447.815 360.42 447.71 360.015 447.515 359.67L448.595 359.13L447.86 357.9L446.435 358.65C446.015 358.44 445.55 358.32 445.04 358.32C443.51 358.32 442.265 359.295 442.265 360.87ZM445.415 365.91C446.12 365.91 446.63 366.06 446.63 366.69C446.63 367.365 445.94 367.62 445.055 367.62C444.08 367.62 443.36 367.26 443.36 366.54C443.36 366.255 443.405 366.03 443.525 365.85C443.795 365.895 444.08 365.91 444.395 365.91H445.415ZM444.005 360.87C444.005 360.24 444.44 359.82 445.04 359.82C445.64 359.82 446.075 360.24 446.075 360.87C446.075 361.485 445.64 361.89 445.04 361.89C444.44 361.89 444.005 361.485 444.005 360.87ZM459.482 356.265C459.482 356.94 459.992 357.465 460.682 357.465C461.372 357.465 461.882 356.94 461.882 356.265C461.882 355.59 461.372 355.065 460.682 355.065C459.992 355.065 459.482 355.59 459.482 356.265ZM459.752 358.44V366H461.612V358.44H459.752ZM463.191 358.44V366H465.051V362.985C465.051 360.99 465.876 359.91 466.776 359.91C467.406 359.91 467.856 360.255 467.856 361.155V366H469.716V360.6C469.716 359.085 468.741 358.32 467.391 358.32C466.416 358.32 465.606 358.86 465.051 359.655V358.44H463.191ZM470.57 358.44L473.135 366H474.815L477.38 358.44H475.505L473.975 363.705L472.445 358.44H470.57ZM484.821 362.055C484.821 360.405 483.816 358.32 481.296 358.32C478.701 358.32 477.666 360.435 477.666 362.22C477.666 364.005 478.701 366.12 481.296 366.12C483.126 366.12 484.146 365.25 484.731 363.915L483.231 363.36C482.781 364.14 482.256 364.53 481.401 364.53C480.246 364.53 479.661 363.66 479.616 362.82H484.821V362.055ZM481.296 359.91C482.286 359.91 482.751 360.6 482.916 361.35H479.661C479.796 360.63 480.351 359.91 481.296 359.91ZM488.521 358.32C487.051 358.32 486.106 359.355 486.106 360.525C486.106 361.695 486.811 362.22 487.636 362.565C488.551 362.955 489.526 363.09 489.526 363.72C489.526 364.275 489.166 364.53 488.596 364.53C487.861 364.53 487.351 364.02 487.081 363.285L485.596 364.08C485.971 365.01 487.021 366.12 488.596 366.12C490.231 366.12 491.281 364.965 491.281 363.6C491.281 361.98 489.586 361.65 488.551 361.275C488.101 361.11 487.831 360.87 487.831 360.54C487.831 360.12 488.161 359.91 488.521 359.91C488.941 359.91 489.436 360.12 489.781 360.57L490.891 359.55C490.426 358.815 489.541 358.32 488.521 358.32ZM496.505 364.35C496.25 364.485 496.04 364.53 495.785 364.53C495.155 364.53 494.795 364.23 494.795 363.3V360.03H496.79V358.44H494.795V355.38L492.935 356.55V358.44H491.765V360.03H492.935V363.33C492.935 365.205 494 366.12 495.71 366.12C496.115 366.12 496.52 366.045 496.94 365.85L496.505 364.35ZM504.554 366V363.06C504.554 360.93 505.289 359.91 506.189 359.91C506.744 359.91 507.119 360.195 507.119 360.96V366H508.979V360.645C508.979 359.19 508.139 358.32 506.729 358.32C505.799 358.32 504.959 358.905 504.419 359.88C504.089 358.785 503.234 358.32 502.304 358.32C501.329 358.32 500.684 358.815 500.129 359.655V358.44H498.269V366H500.129V363.225C500.129 360.975 500.849 359.91 501.764 359.91C502.319 359.91 502.694 360.195 502.694 360.96V366H504.554ZM517.518 362.055C517.518 360.405 516.513 358.32 513.993 358.32C511.398 358.32 510.363 360.435 510.363 362.22C510.363 364.005 511.398 366.12 513.993 366.12C515.823 366.12 516.843 365.25 517.428 363.915L515.928 363.36C515.478 364.14 514.953 364.53 514.098 364.53C512.943 364.53 512.358 363.66 512.313 362.82H517.518V362.055ZM513.993 359.91C514.983 359.91 515.448 360.6 515.613 361.35H512.358C512.493 360.63 513.048 359.91 513.993 359.91ZM518.909 358.44V366H520.769V362.985C520.769 360.99 521.594 359.91 522.494 359.91C523.124 359.91 523.574 360.255 523.574 361.155V366H525.434V360.6C525.434 359.085 524.459 358.32 523.109 358.32C522.134 358.32 521.324 358.86 520.769 359.655V358.44H518.909ZM531.222 364.35C530.967 364.485 530.757 364.53 530.502 364.53C529.872 364.53 529.512 364.23 529.512 363.3V360.03H531.507V358.44H529.512V355.38L527.652 356.55V358.44H526.482V360.03H527.652V363.33C527.652 365.205 528.717 366.12 530.427 366.12C530.832 366.12 531.237 366.045 531.657 365.85L531.222 364.35Z" fill="#060606"/>
<defs>
<filter id="filter0_dddddd_1_370" x="202" y="330.704" width="446" height="266.296" filterUnits="userSpaceOnUse" color-interpolation-filters="sRGB">
<feFlood flood-opacity="0" result="BackgroundImageFix"/>
<feColorMatrix in="SourceAlpha" type="matrix" values="0 0 0 0 0 0 0 0 0 0 0 0 0 0 0 0 0 0 127 0" result="hardAlpha"/>
<feOffset dy="1.85185"/>
<feGaussianBlur stdDeviation="1.57407"/>
<feColorMatrix type="matrix" values="0 0 0 0 0 0 0 0 0 0 0 0 0 0 0 0 0 0 0.01 0"/>
<feBlend mode="normal" in2="BackgroundImageFix" result="effect1_dropShadow_1_370"/>
<feColorMatrix in="SourceAlpha" type="matrix" values="0 0 0 0 0 0 0 0 0 0 0 0 0 0 0 0 0 0 127 0" result="hardAlpha"/>
<feOffset dy="8.14815"/>
<feGaussianBlur stdDeviation="3.25926"/>
<feColorMatrix type="matrix" values="0 0 0 0 0 0 0 0 0 0 0 0 0 0 0 0 0 0 0.0117778 0"/>
<feBlend mode="normal" in2="effect1_dropShadow_1_370" result="effect2_dropShadow_1_370"/>
<feColorMatrix in="SourceAlpha" type="matrix" values="0 0 0 0 0 0 0 0 0 0 0 0 0 0 0 0 0 0 127 0" result="hardAlpha"/>
<feOffset dy="20"/>
<feGaussianBlur stdDeviation="6.5"/>
<feColorMatrix type="matrix" values="0 0 0 0 0 0 0 0 0 0 0 0 0 0 0 0 0 0 0.015 0"/>
<feBlend mode="normal" in2="effect2_dropShadow_1_370" result="effect3_dropShadow_1_370"/>
<feColorMatrix in="SourceAlpha" type="matrix" values="0 0 0 0 0 0 0 0 0 0 0 0 0 0 0 0 0 0 127 0" result="hardAlpha"/>
<feOffset dy="38.5185"/>
<feGaussianBlur stdDeviation="12.7407"/>
<feColorMatrix type="matrix" values="0 0 0 0 0 0 0 0 0 0 0 0 0 0 0 0 0 0 0.0182222 0"/>
<feBlend mode="normal" in2="effect3_dropShadow_1_370" result="effect4_dropShadow_1_370"/>
<feColorMatrix in="SourceAlpha" type="matrix" values="0 0 0 0 0 0 0 0 0 0 0 0 0 0 0 0 0 0 127 0" result="hardAlpha"/>
<feOffset dy="64.8148"/>
<feGaussianBlur stdDeviation="23.4259"/>
<feColorMatrix type="matrix" values="0 0 0 0 0 0 0 0 0 0 0 0 0 0 0 0 0 0 0.0227778 0"/>
<feBlend mode="normal" in2="effect4_dropShadow_1_370" result="effect5_dropShadow_1_370"/>
<feColorMatrix in="SourceAlpha" type="matrix" values="0 0 0 0 0 0 0 0 0 0 0 0 0 0 0 0 0 0 127 0" result="hardAlpha"/>
<feOffset dy="100"/>
<feGaussianBlur stdDeviation="40"/>
<feColorMatrix type="matrix" values="0 0 0 0 0 0 0 0 0 0 0 0 0 0 0 0 0 0 0.03 0"/>
<feBlend mode="normal" in2="effect5_dropShadow_1_370" result="effect6_dropShadow_1_370"/>
<feBlend mode="normal" in="SourceGraphic" in2="effect6_dropShadow_1_370" result="shape"/>
</filter>
</defs>
</svg>
