<svg width="1647" height="483" viewBox="0 0 1647 483" fill="none" xmlns="http://www.w3.org/2000/svg">
<path opacity="0.2" fill-rule="evenodd" clip-rule="evenodd" d="M60.6389 435.648C124.848 465.185 291.563 510.884 444.869 457.371C468.847 449.001 485.479 438.725 496.733 427.112C507.993 415.492 513.847 402.557 516.302 388.912C518.755 375.277 517.811 360.945 515.496 346.525C513.825 336.112 511.434 325.627 509.083 315.317C508.179 311.356 507.282 307.42 506.433 303.525C500.302 275.377 496.746 249.341 511.442 229.832C526.142 210.317 559.253 197.147 627.051 195.232C729.069 192.35 798.991 217.538 858.217 238.873C877.661 245.877 895.951 252.466 913.847 257.51C950.045 267.713 984.605 271.576 1023.72 259.668C1062.82 247.765 1106.42 220.122 1160.74 167.427C1214.98 114.822 1260.26 99.1744 1300.68 103.958C1341.15 108.747 1376.88 134.017 1411.98 163.567C1420.46 170.707 1428.9 178.097 1437.37 185.504C1463.9 208.72 1490.62 232.107 1519.26 248.479C1557.07 270.099 1598.3 279.534 1646.97 260.313L1646.6 259.383C1598.29 278.465 1557.38 269.122 1519.75 247.61C1491.21 231.293 1464.6 208.002 1438.09 184.802L1438.08 184.801C1429.61 177.382 1421.14 169.972 1412.62 162.802C1377.52 133.248 1341.59 107.792 1300.8 102.965C1259.97 98.1336 1214.41 113.98 1160.05 166.71C1105.78 219.35 1062.32 246.874 1023.43 258.711C984.56 270.544 950.208 266.72 914.118 256.547C896.309 251.528 878.072 244.958 858.663 237.966C799.415 216.622 729.249 191.345 627.023 194.232C559.207 196.148 525.648 209.311 510.644 229.23C495.635 249.155 499.339 275.654 505.456 303.738C506.309 307.654 507.21 311.602 508.115 315.57C510.463 325.869 512.843 336.305 514.509 346.683C516.815 361.052 517.742 375.258 515.318 388.735C512.895 402.202 507.125 414.951 496.015 426.416C484.9 437.886 468.418 448.092 444.54 456.427C291.569 509.823 125.136 464.217 61.0568 434.739L60.6389 435.648ZM424.666 423.323C271.36 476.836 104.645 431.138 40.4358 401.6L40.8536 400.691C104.933 430.17 271.366 475.775 424.337 422.379C448.215 414.044 464.697 403.838 475.812 392.368C486.922 380.904 492.692 368.154 495.114 354.687C497.539 341.21 496.612 327.005 494.306 312.635C492.64 302.257 490.26 291.821 487.911 281.522C487.007 277.554 486.106 273.606 485.253 269.69C479.136 241.606 475.432 215.107 490.441 195.183C505.445 175.263 539.004 162.1 606.819 160.185C709.046 157.297 779.212 182.574 838.46 203.918C857.869 210.91 876.106 217.48 893.915 222.5C930.005 232.672 964.356 236.497 1003.23 224.664C1042.11 212.826 1085.58 185.302 1139.84 132.662C1194.2 79.9328 1239.77 64.086 1280.6 68.9177C1321.39 73.7447 1357.32 99.2007 1392.42 128.755C1400.94 135.925 1409.4 143.335 1417.88 150.754C1444.39 173.954 1471.01 197.245 1499.55 213.563C1537.18 235.074 1578.08 244.418 1626.4 225.335L1626.76 226.266C1578.1 245.487 1536.87 236.051 1499.05 214.431C1470.41 198.059 1443.69 174.673 1417.16 151.457L1417.16 151.452C1408.7 144.046 1400.25 136.658 1391.78 129.52C1356.68 99.9692 1320.95 74.6996 1280.48 69.9108C1240.06 65.1268 1194.77 80.774 1140.54 133.38C1086.22 186.074 1042.62 213.718 1003.52 225.62C964.402 237.528 929.842 233.665 893.643 223.462C875.748 218.418 857.457 211.829 838.014 204.825C778.788 183.491 708.866 158.303 606.848 161.184C539.05 163.099 505.939 176.27 491.239 195.784C476.543 215.294 480.099 241.329 486.23 269.477C487.079 273.373 487.976 277.308 488.88 281.27C491.231 291.58 493.622 302.065 495.293 312.477C497.608 326.897 498.551 341.229 496.099 354.864C493.644 368.509 487.79 381.445 476.53 393.064C465.276 404.677 448.644 414.953 424.666 423.323ZM20.2327 367.552C84.4419 397.09 251.157 442.789 404.463 389.275C428.441 380.906 445.073 370.63 456.327 359.016C467.587 347.397 473.441 334.462 475.896 320.817C478.348 307.182 477.405 292.85 475.09 278.429C473.419 268.017 471.028 257.532 468.677 247.222C467.773 243.261 466.876 239.325 466.027 235.43C459.896 207.281 456.34 181.246 471.036 161.737C485.736 142.222 518.847 129.052 586.644 127.137C688.663 124.255 758.585 149.443 817.81 170.778C837.254 177.782 855.545 184.371 873.44 189.415C909.639 199.618 944.198 203.48 983.315 191.573C1022.42 179.67 1066.01 152.027 1120.34 99.3321C1174.57 46.7264 1219.85 31.0792 1260.28 35.8632C1300.74 40.652 1336.47 65.9216 1371.57 95.4721C1380.05 102.609 1388.49 109.997 1396.95 117.402L1396.96 117.404L1396.96 117.408L1396.96 117.409C1423.49 140.625 1450.21 164.011 1478.85 180.383C1516.67 202.004 1557.9 211.439 1606.56 192.218L1606.19 191.288C1557.88 210.37 1516.97 201.026 1479.35 179.515C1450.8 163.198 1424.19 139.907 1397.68 116.707C1389.2 109.287 1380.73 101.877 1372.22 94.7071C1337.11 65.1531 1301.18 39.6971 1260.4 34.8701C1219.57 30.0384 1174 45.8852 1119.64 98.6143C1065.37 151.254 1021.91 178.779 983.024 190.616C944.153 202.449 909.802 198.624 873.712 188.452C855.903 183.432 837.666 176.863 818.257 169.871C759.008 148.527 688.843 123.25 586.616 126.137C518.801 128.052 485.242 141.216 470.237 161.135C455.229 181.06 458.933 207.559 465.05 235.642C465.903 239.557 466.802 243.502 467.707 247.468L467.708 247.471L467.708 247.473L467.708 247.474C470.057 257.773 472.437 268.21 474.103 278.588C476.409 292.957 477.336 307.163 474.911 320.64C472.489 334.106 466.718 346.856 455.609 358.321C444.494 369.791 428.012 379.996 404.134 388.331C251.163 441.728 84.7302 396.122 20.6505 366.644L20.2327 367.552ZM0.029541 333.505C64.2388 363.042 230.953 408.741 384.26 355.228C408.238 346.858 424.87 336.582 436.124 324.969C447.384 313.35 453.238 300.414 455.692 286.769C458.145 273.134 457.201 258.802 454.887 244.382C453.216 233.97 450.825 223.485 448.474 213.174C447.57 209.213 446.673 205.278 445.824 201.382C439.693 173.234 436.137 147.199 450.833 127.689C465.533 108.174 498.644 95.0039 566.441 93.089C668.46 90.2076 738.382 115.395 797.607 136.73C817.051 143.734 835.342 150.323 853.237 155.367C889.436 165.57 923.995 169.433 963.112 157.525C1002.21 145.623 1045.81 117.979 1100.13 65.2844C1154.37 12.6788 1199.65 -2.96848 1240.07 1.81555C1280.54 6.6044 1316.27 31.874 1351.37 61.4245C1359.85 68.5602 1368.29 75.9465 1376.75 83.3501L1376.76 83.3593L1376.76 83.3614C1403.29 106.578 1430.01 129.964 1458.65 146.336C1496.46 167.956 1537.69 177.392 1586.36 158.17L1585.99 157.24C1537.68 176.322 1496.77 166.979 1459.14 145.468C1430.6 129.15 1403.99 105.859 1377.48 82.6591C1369 75.2395 1360.53 67.8293 1352.01 60.6595C1316.91 31.1055 1280.98 5.64944 1240.19 0.822479C1199.36 -4.00925 1153.8 11.8375 1099.44 64.5667C1045.17 117.207 1001.71 144.731 962.82 156.569C923.95 168.401 889.599 164.577 853.508 154.404C835.7 149.385 817.464 142.815 798.056 135.824L798.054 135.823C738.805 114.479 668.64 89.202 566.413 92.0894C498.598 94.0048 465.039 107.168 450.034 127.087C435.026 147.012 438.73 173.511 444.847 201.595C445.7 205.51 446.6 209.457 447.505 213.425L447.505 213.426L447.505 213.427C449.854 223.726 452.234 234.162 453.9 244.54C456.206 258.909 457.133 273.115 454.708 286.592C452.286 300.059 446.515 312.809 435.406 324.273C424.29 335.743 407.808 345.949 383.93 354.284C230.96 407.68 64.5271 362.074 0.447388 332.596L0.029541 333.505Z" fill="url(#paint0_linear_1_220)" fill-opacity="0.7"/>
<defs>
<linearGradient id="paint0_linear_1_220" x1="1457.57" y1="122.348" x2="14.1225" y2="122.348" gradientUnits="userSpaceOnUse">
<stop offset="0.310417" stop-color="#4535AF" stop-opacity="0.7"/>
<stop offset="0.461458" stop-color="#F8EFF4" stop-opacity="0.1"/>
<stop offset="0.851637" stop-color="#4535AF" stop-opacity="0.8"/>
</linearGradient>
</defs>
</svg>
